# Blender 3.6.0
# www.blender.org
o Banner
v -0.269778 0.003701 0.109648
v -0.269778 0.060541 0.109648
v -0.269778 0.003701 -0.109648
v -0.269778 0.060541 -0.109648
v 0.269778 0.003701 0.109648
v 0.269778 0.060541 0.109648
v 0.269778 0.003701 -0.109648
v 0.269778 0.060541 -0.109648
v -0.092895 0.060541 0.067371
v -0.092895 0.060541 -0.067371
v 0.092895 0.060541 -0.067371
v 0.092895 0.060541 0.067371
v 0.736263 2.991814 -0.000332
v 0.736263 3.043504 -0.030175
v 0.736263 2.991814 0.059354
v 0.736263 3.043504 0.089197
v 0.736263 3.095193 0.059354
v 0.736263 3.095194 -0.000332
v 0.816915 3.001354 0.005176
v 0.816915 3.043504 -0.019160
v 0.816915 3.001354 0.053847
v 0.816915 3.043504 0.078182
v 0.816915 3.085654 0.053847
v 0.816915 3.085654 0.005176
v 0.816915 3.016133 0.021491
v 0.816915 3.043504 0.013470
v 0.816915 3.016133 0.037532
v 0.816915 3.043504 0.045552
v 0.816915 3.070875 0.037532
v 0.816915 3.070875 0.021491
v 0.876516 3.027574 0.019824
v 0.876516 3.043504 0.010137
v 0.876516 3.027574 0.039198
v 0.876516 3.043504 0.048885
v 0.876516 3.059434 0.039198
v 0.876516 3.059434 0.019824
v 0.889363 2.991402 0.019824
v 0.889363 3.043504 0.010137
v 0.889363 2.991402 0.039198
v 0.889363 3.043504 0.048885
v 0.889363 3.095606 0.039198
v 0.889363 3.095606 0.019824
v 1.124105 3.027755 0.019824
v 1.180506 3.043504 0.020729
v 1.124105 3.027755 0.039198
v 1.180506 3.043504 0.038293
v 1.124105 3.059252 0.039198
v 1.124105 3.059252 0.019824
v 1.125547 3.043504 0.044640
v 1.126921 3.043504 0.014407
v 0.736263 3.009705 0.009997
v 0.736263 3.043504 -0.009517
v 0.736263 3.009705 0.049025
v 0.736263 3.043504 0.068539
v 0.736263 3.077303 0.049025
v 0.736263 3.077303 0.009997
v -0.736263 2.991814 -0.000332
v -0.736263 3.043504 -0.030175
v -0.736263 2.991814 0.059354
v -0.736263 3.043504 0.089197
v -0.736263 3.095193 0.059354
v -0.736263 3.095194 -0.000332
v -0.816915 3.001354 0.005176
v -0.816915 3.043504 -0.019160
v -0.816915 3.001354 0.053847
v -0.816915 3.043504 0.078182
v -0.816915 3.085654 0.053847
v -0.816915 3.085654 0.005176
v -0.816915 3.016133 0.021491
v -0.816915 3.043504 0.013470
v -0.816915 3.016133 0.037532
v -0.816915 3.043504 0.045552
v -0.816915 3.070875 0.037532
v -0.816915 3.070875 0.021491
v -0.876516 3.027574 0.019824
v -0.876516 3.043504 0.010137
v -0.876516 3.027574 0.039198
v -0.876516 3.043504 0.048885
v -0.876516 3.059434 0.039198
v -0.876516 3.059434 0.019824
v -0.889363 2.991402 0.019824
v -0.889363 3.043504 0.010137
v -0.889363 2.991402 0.039198
v -0.889363 3.043504 0.048885
v -0.889363 3.095606 0.039198
v -0.889363 3.095606 0.019824
v -1.124105 3.027755 0.019824
v -1.180506 3.043504 0.020729
v -1.124105 3.027755 0.039198
v -1.180506 3.043504 0.038293
v -1.124105 3.059252 0.039198
v -1.124105 3.059252 0.019824
v -1.125547 3.043504 0.044640
v -1.126921 3.043504 0.014407
v -0.736263 3.009705 0.009997
v -0.736263 3.043504 -0.009517
v -0.736263 3.009705 0.049025
v -0.736263 3.043504 0.068539
v -0.736263 3.077303 0.049025
v -0.736263 3.077303 0.009997
v 0.000000 3.358415 -0.037236
v 0.032247 3.358415 -0.018618
v 0.032247 3.358415 0.018617
v -0.000000 3.358415 0.037235
v -0.032247 3.358415 0.018617
v -0.032247 3.358415 -0.018618
v 0.051690 3.358013 -0.029844
v 0.000000 3.358013 -0.059687
v 0.051690 3.358013 0.029842
v 0.000000 3.358013 0.059685
v -0.051690 3.358013 0.029842
v -0.051690 3.358013 -0.029844
v 0.042150 3.438665 -0.024336
v -0.000000 3.438665 -0.048672
v 0.042150 3.438665 0.024335
v -0.000000 3.438665 0.048671
v -0.042151 3.438665 0.024335
v -0.042151 3.438665 -0.024336
v 0.027371 3.438665 -0.008021
v -0.000000 3.438665 -0.016042
v 0.027371 3.438665 0.008020
v -0.000000 3.438665 0.016041
v -0.027371 3.438665 0.008020
v -0.027371 3.438665 -0.008021
v 0.015930 3.498267 -0.009688
v -0.000000 3.498267 -0.019375
v 0.015930 3.498267 0.009687
v -0.000000 3.498267 0.019374
v -0.015930 3.498267 0.009687
v -0.015930 3.498267 -0.009688
v 0.052102 3.511114 -0.009688
v -0.000000 3.511114 -0.019375
v 0.052102 3.511114 0.009687
v -0.000000 3.511114 0.019374
v -0.052102 3.511114 0.009687
v -0.052102 3.511114 -0.009688
v 0.015748 3.745856 -0.009688
v -0.000000 3.802257 -0.008783
v 0.015748 3.745856 0.009687
v -0.000000 3.802257 0.008782
v -0.015748 3.745856 0.009687
v -0.015748 3.745856 -0.009688
v -0.000000 3.747298 0.015129
v -0.000000 3.748672 -0.015105
v -0.092895 0.060541 0.067371
v -0.092895 0.060541 -0.067371
v 0.092895 0.060541 -0.067371
v 0.092895 0.060541 0.067371
v -0.092895 0.102209 0.067371
v -0.092895 0.102209 -0.067371
v 0.092895 0.102209 -0.067371
v 0.092895 0.102209 0.067371
vn -1.0000 -0.0000 -0.0000
vn -0.0000 -0.0000 -1.0000
vn 1.0000 -0.0000 -0.0000
vn -0.0000 -0.0000 1.0000
vn -0.0000 -1.0000 -0.0000
vn -0.0000 1.0000 -0.0000
vn 0.1175 0.4965 -0.8600
vn 0.1175 0.4965 0.8600
vn 0.1175 -0.9931 -0.0000
vn 0.1175 0.9931 -0.0000
vn 0.1175 -0.4965 0.8600
vn 0.1175 -0.4965 -0.8600
vn 0.0129 0.3284 -0.9444
vn -0.0280 0.4591 -0.8880
vn -0.0477 0.5190 -0.8534
vn -0.9423 0.3347 -0.0000
vn 0.0129 0.3284 0.9444
vn -0.0280 0.4591 0.8880
vn 0.0271 0.2811 0.9593
vn 0.1885 -0.9821 -0.0000
vn 0.1885 0.9821 -0.0000
vn 0.0129 -0.3284 0.9444
vn -0.0280 -0.4591 0.8880
vn -0.0477 -0.5190 0.8534
vn 0.0129 -0.3284 -0.9444
vn -0.0280 -0.4591 -0.8880
vn 0.0271 -0.2811 -0.9593
vn 0.0278 0.1894 0.9815
vn 0.0184 0.3103 0.9505
vn 0.0283 0.1827 0.9828
vn -0.3650 -0.2508 0.8966
vn -0.1992 -0.3869 0.9004
vn -0.0000 -0.5196 0.8544
vn -0.3650 -0.2508 -0.8966
vn -0.1992 -0.3869 -0.9004
vn -0.4576 -0.1625 -0.8742
vn -0.3650 0.2508 -0.8966
vn -0.1992 0.3869 -0.9004
vn -0.0000 0.5196 -0.8544
vn -0.3650 0.2508 0.8966
vn -0.1992 0.3869 0.9004
vn -0.4576 0.1625 0.8742
vn -0.9423 -0.3347 -0.0000
vn 0.2689 -0.9632 -0.0000
vn 0.1530 -0.9882 -0.0000
vn 0.1530 0.9882 -0.0000
vn 0.0278 -0.1894 0.9815
vn 0.0184 -0.3103 0.9505
vn 0.0170 -0.3280 0.9445
vn 0.0278 -0.1894 -0.9815
vn 0.0183 -0.3110 -0.9502
vn 0.0283 -0.1827 -0.9828
vn 0.0278 0.1894 -0.9815
vn 0.0183 0.3110 -0.9502
vn 0.0170 0.3280 -0.9445
vn 0.2689 0.9632 -0.0000
vn 0.1082 -0.3335 0.9365
vn 0.1082 0.3335 0.9365
vn 0.1102 0.3409 -0.9336
vn 0.1102 -0.3409 -0.9336
vn -0.1175 0.4965 -0.8600
vn -0.1175 0.4965 0.8600
vn -0.1175 -0.9931 -0.0000
vn -0.1175 0.9931 -0.0000
vn -0.1175 -0.4965 0.8600
vn -0.1175 -0.4965 -0.8600
vn -0.0129 0.3284 -0.9444
vn 0.0280 0.4591 -0.8880
vn -0.0271 0.2811 -0.9593
vn 0.9423 0.3347 -0.0000
vn 0.0280 0.4591 0.8880
vn -0.0129 0.3284 0.9444
vn -0.0271 0.2811 0.9593
vn -0.1885 -0.9821 -0.0000
vn -0.1885 0.9821 -0.0000
vn -0.0129 -0.3284 0.9444
vn 0.0280 -0.4591 0.8880
vn -0.0271 -0.2811 0.9593
vn 0.0280 -0.4591 -0.8880
vn -0.0129 -0.3284 -0.9444
vn -0.0271 -0.2811 -0.9593
vn -0.0184 0.3103 0.9505
vn -0.0278 0.1894 0.9815
vn -0.0283 0.1827 0.9828
vn 0.1992 -0.3869 0.9004
vn 0.3650 -0.2508 0.8966
vn 0.3650 -0.2508 -0.8966
vn 0.1992 -0.3869 -0.9004
vn -0.0000 -0.5196 -0.8544
vn 0.1992 0.3869 -0.9004
vn 0.3650 0.2508 -0.8966
vn 0.3650 0.2508 0.8966
vn 0.1992 0.3869 0.9004
vn -0.0000 0.5196 0.8544
vn 0.9423 -0.3347 -0.0000
vn -0.2689 -0.9632 -0.0000
vn -0.1530 -0.9882 -0.0000
vn -0.1530 0.9882 -0.0000
vn -0.0278 -0.1894 0.9815
vn -0.0184 -0.3103 0.9505
vn -0.0283 -0.1827 0.9828
vn -0.0183 -0.3110 -0.9502
vn -0.0278 -0.1894 -0.9815
vn -0.0283 -0.1827 -0.9828
vn -0.0278 0.1894 -0.9815
vn -0.0183 0.3110 -0.9502
vn -0.0283 0.1827 -0.9828
vn -0.2689 0.9632 -0.0000
vn -0.1082 -0.3335 0.9365
vn -0.1082 0.3335 0.9365
vn -0.1102 0.3409 -0.9336
vn -0.1102 -0.3409 -0.9336
vn 0.0207 -0.9998 -0.0000
vn -0.4965 0.1175 -0.8600
vn -0.0103 -0.9998 0.0179
vn -0.0103 -0.9998 -0.0179
vn 0.0103 -0.9998 0.0179
vn 0.0103 -0.9998 -0.0179
vn -0.0207 -0.9998 -0.0000
vn -0.0206 -0.9998 -0.0000
vn -0.4965 0.1175 0.8600
vn 0.9931 0.1175 -0.0000
vn -0.9931 0.1175 -0.0000
vn 0.4965 0.1175 0.8600
vn 0.4965 0.1175 -0.8600
vn -0.3284 0.0129 -0.9444
vn -0.4591 -0.0280 -0.8880
vn -0.5190 -0.0477 -0.8534
vn -0.3347 -0.9423 -0.0000
vn -0.3284 0.0129 0.9444
vn -0.4591 -0.0280 0.8880
vn -0.2811 0.0271 0.9593
vn 0.9821 0.1885 -0.0000
vn -0.9821 0.1885 -0.0000
vn 0.3284 0.0129 0.9444
vn 0.4591 -0.0280 0.8880
vn 0.5190 -0.0477 0.8534
vn 0.3284 0.0129 -0.9444
vn 0.4591 -0.0280 -0.8880
vn 0.2811 0.0271 -0.9593
vn -0.1894 0.0278 0.9815
vn -0.3103 0.0184 0.9505
vn -0.1827 0.0283 0.9828
vn 0.2508 -0.3650 0.8966
vn 0.3869 -0.1992 0.9004
vn 0.5196 -0.0000 0.8544
vn 0.2508 -0.3650 -0.8966
vn 0.3869 -0.1992 -0.9004
vn 0.1625 -0.4576 -0.8742
vn -0.2508 -0.3650 -0.8966
vn -0.3869 -0.1992 -0.9004
vn -0.5196 -0.0000 -0.8544
vn -0.2508 -0.3650 0.8966
vn -0.3869 -0.1992 0.9004
vn -0.1625 -0.4576 0.8742
vn 0.3347 -0.9423 -0.0000
vn 0.9632 0.2689 -0.0000
vn 0.9882 0.1530 -0.0000
vn -0.9882 0.1530 -0.0000
vn 0.1894 0.0278 0.9815
vn 0.3103 0.0184 0.9505
vn 0.3280 0.0170 0.9445
vn 0.1894 0.0278 -0.9815
vn 0.3110 0.0183 -0.9502
vn 0.1827 0.0283 -0.9828
vn -0.1894 0.0278 -0.9815
vn -0.3110 0.0183 -0.9502
vn -0.3280 0.0170 -0.9445
vn -0.9632 0.2689 -0.0000
vn 0.3335 0.1082 0.9365
vn -0.3335 0.1082 0.9365
vn -0.3409 0.1102 -0.9336
vn 0.3409 0.1102 -0.9336
vn 0.0271 0.2811 -0.9593
vn -0.0477 0.5190 0.8534
vn 0.0271 -0.2811 0.9593
vn -0.0477 -0.5190 -0.8534
vn 0.0170 0.3280 0.9445
vn -0.4576 -0.1625 0.8742
vn -0.4576 0.1625 -0.8742
vn 0.0283 -0.1827 0.9828
vn 0.0170 -0.3279 -0.9445
vn 0.0283 0.1827 -0.9828
vn 0.0477 0.5190 -0.8534
vn 0.0477 0.5190 0.8534
vn 0.0477 -0.5190 0.8534
vn 0.0477 -0.5190 -0.8534
vn -0.0170 0.3280 0.9445
vn 0.4576 -0.1625 0.8742
vn 0.4576 -0.1625 -0.8742
vn 0.4576 0.1625 -0.8742
vn 0.4576 0.1625 0.8742
vn -0.0170 -0.3280 0.9445
vn -0.0170 -0.3279 -0.9445
vn -0.0170 0.3280 -0.9445
vn -0.2811 0.0271 -0.9593
vn -0.5190 -0.0477 0.8534
vn 0.2811 0.0271 0.9593
vn 0.5190 -0.0477 -0.8534
vn -0.3280 0.0170 0.9445
vn 0.1625 -0.4576 0.8742
vn 0.5196 -0.0000 -0.8544
vn -0.1625 -0.4576 -0.8742
vn -0.5196 -0.0000 0.8544
vn 0.1827 0.0283 0.9828
vn 0.3280 0.0170 -0.9445
vn -0.1827 0.0283 -0.9828
s 1
f 2//1 3//1 1//1
f 4//2 7//2 3//2
f 8//3 5//3 7//3
f 6//4 1//4 5//4
f 7//5 1//5 3//5
f 6//6 11//6 12//6
f 4//6 9//6 10//6
f 6//6 9//6 2//6
f 4//6 11//6 8//6
f 18//7 20//7 14//7
f 24//3 29//3 30//3
f 17//8 22//8 23//8
f 13//9 21//9 15//9
f 18//10 23//10 24//10
f 16//11 21//11 22//11
f 13//12 20//12 19//12
f 26//13 36//14 32//15
f 21//3 28//3 22//3
f 19//3 26//3 25//3
f 24//3 26//3 20//3
f 23//3 28//3 29//3
f 19//3 27//3 21//3
f 35//16 42//16 36//16
f 28//17 35//18 29//19
f 25//20 33//20 27//20
f 29//21 36//21 30//21
f 28//22 33//23 34//24
f 26//25 31//26 25//27
f 40//28 47//29 41//30
f 33//31 40//32 34//33
f 31//34 38//35 37//36
f 36//37 38//38 32//39
f 35//40 40//41 41//42
f 31//43 39//43 33//43
f 43//44 46//44 45//44
f 37//45 45//45 39//45
f 41//46 48//46 42//46
f 40//47 45//48 49//49
f 38//50 43//51 37//52
f 38//53 48//54 50//55
f 46//56 48//56 47//56
f 49//57 45//57 46//57
f 47//58 49//58 46//58
f 50//59 48//59 44//59
f 43//60 50//60 44//60
f 17//1 56//1 55//1
f 16//1 53//1 15//1
f 14//1 51//1 52//1
f 14//1 56//1 18//1
f 17//1 54//1 16//1
f 15//1 51//1 13//1
f 64//61 62//61 58//61
f 68//1 73//1 67//1
f 61//62 66//62 60//62
f 65//63 57//63 59//63
f 68//64 61//64 62//64
f 60//65 65//65 59//65
f 57//66 64//66 58//66
f 70//67 80//68 74//69
f 72//1 65//1 66//1
f 63//1 70//1 64//1
f 70//1 68//1 64//1
f 67//1 72//1 66//1
f 71//1 63//1 65//1
f 86//70 79//70 80//70
f 79//71 72//72 73//73
f 77//74 69//74 71//74
f 80//75 73//75 74//75
f 72//76 77//77 71//78
f 75//79 70//80 69//81
f 91//82 84//83 85//84
f 84//85 77//86 78//33
f 75//87 82//88 76//89
f 82//90 80//91 76//39
f 79//92 84//93 78//94
f 83//95 75//95 77//95
f 89//96 88//96 87//96
f 89//97 81//97 83//97
f 92//98 85//98 86//98
f 84//99 89//100 83//101
f 87//102 82//103 81//104
f 82//105 92//106 86//107
f 91//108 88//108 90//108
f 93//109 90//109 89//109
f 91//110 90//110 93//110
f 94//111 88//111 92//111
f 87//112 88//112 94//112
f 61//3 100//3 62//3
f 97//3 60//3 59//3
f 58//3 95//3 57//3
f 100//3 58//3 62//3
f 98//3 61//3 60//3
f 95//3 59//3 57//3
f 106//113 111//113 112//113
f 112//114 114//114 108//114
f 102//115 108//115 107//115
f 103//116 110//116 104//116
f 101//117 112//117 108//117
f 104//118 111//118 105//118
f 102//119 109//120 103//120
f 117//6 124//6 118//6
f 111//121 116//121 117//121
f 107//122 115//122 109//122
f 111//123 118//123 112//123
f 110//124 115//124 116//124
f 108//125 113//125 107//125
f 120//126 130//127 126//128
f 115//6 122//6 116//6
f 113//6 120//6 119//6
f 118//6 120//6 114//6
f 117//6 122//6 123//6
f 113//6 121//6 115//6
f 129//129 136//129 130//129
f 122//130 129//131 123//132
f 121//133 125//133 127//133
f 124//134 129//134 130//134
f 122//135 127//136 128//137
f 120//138 125//139 119//140
f 134//141 141//142 135//143
f 127//144 134//145 128//146
f 125//147 132//148 131//149
f 130//150 132//151 126//152
f 129//153 134//154 135//155
f 125//156 133//156 127//156
f 138//157 139//157 137//157
f 133//158 137//158 139//158
f 135//159 142//159 136//159
f 134//160 139//161 143//162
f 132//163 137//164 131//165
f 132//166 142//167 144//168
f 138//169 141//169 140//169
f 143//170 139//170 140//170
f 141//171 143//171 140//171
f 144//172 142//172 138//172
f 137//173 144//173 138//173
f 148//4 149//4 145//4
f 150//6 152//6 151//6
f 146//2 151//2 147//2
f 147//3 152//3 148//3
f 145//1 150//1 146//1
f 2//1 4//1 3//1
f 4//2 8//2 7//2
f 8//3 6//3 5//3
f 6//4 2//4 1//4
f 7//5 5//5 1//5
f 6//6 8//6 11//6
f 4//6 2//6 9//6
f 6//6 12//6 9//6
f 4//6 10//6 11//6
f 18//7 24//7 20//7
f 24//3 23//3 29//3
f 17//8 16//8 22//8
f 13//9 19//9 21//9
f 18//10 17//10 23//10
f 16//11 15//11 21//11
f 13//12 14//12 20//12
f 26//13 30//174 36//14
f 21//3 27//3 28//3
f 19//3 20//3 26//3
f 24//3 30//3 26//3
f 23//3 22//3 28//3
f 19//3 25//3 27//3
f 35//16 41//16 42//16
f 28//17 34//175 35//18
f 25//20 31//20 33//20
f 29//21 35//21 36//21
f 28//22 27//176 33//23
f 26//25 32//177 31//26
f 40//28 49//178 47//29
f 33//31 39//179 40//32
f 31//34 32//89 38//35
f 36//37 42//180 38//38
f 35//40 34//94 40//41
f 31//43 37//43 39//43
f 43//44 44//44 46//44
f 37//45 43//45 45//45
f 41//46 47//46 48//46
f 40//47 39//181 45//48
f 38//50 50//182 43//51
f 38//53 42//183 48//54
f 46//56 44//56 48//56
f 17//1 18//1 56//1
f 16//1 54//1 53//1
f 14//1 13//1 51//1
f 14//1 52//1 56//1
f 17//1 55//1 54//1
f 15//1 53//1 51//1
f 64//61 68//61 62//61
f 68//1 74//1 73//1
f 61//62 67//62 66//62
f 65//63 63//63 57//63
f 68//64 67//64 61//64
f 60//65 66//65 65//65
f 57//66 63//66 64//66
f 70//67 76//184 80//68
f 72//1 71//1 65//1
f 63//1 69//1 70//1
f 70//1 74//1 68//1
f 67//1 73//1 72//1
f 71//1 69//1 63//1
f 86//70 85//70 79//70
f 79//71 78//185 72//72
f 77//74 75//74 69//74
f 80//75 79//75 73//75
f 72//76 78//186 77//77
f 75//79 76//187 70//80
f 91//82 93//188 84//83
f 84//85 83//189 77//86
f 75//87 81//190 82//88
f 82//90 86//191 80//91
f 79//92 85//192 84//93
f 83//95 81//95 75//95
f 89//96 90//96 88//96
f 89//97 87//97 81//97
f 92//98 91//98 85//98
f 84//99 93//193 89//100
f 87//102 94//194 82//103
f 82//105 94//195 92//106
f 91//108 92//108 88//108
f 61//3 99//3 100//3
f 97//3 98//3 60//3
f 58//3 96//3 95//3
f 100//3 96//3 58//3
f 98//3 99//3 61//3
f 95//3 97//3 59//3
f 106//113 105//113 111//113
f 112//114 118//114 114//114
f 102//115 101//115 108//115
f 103//116 109//116 110//116
f 101//117 106//117 112//117
f 104//118 110//118 111//118
f 102//119 107//119 109//120
f 117//6 123//6 124//6
f 111//121 110//121 116//121
f 107//122 113//122 115//122
f 111//123 117//123 118//123
f 110//124 109//124 115//124
f 108//125 114//125 113//125
f 120//126 124//196 130//127
f 115//6 121//6 122//6
f 113//6 114//6 120//6
f 118//6 124//6 120//6
f 117//6 116//6 122//6
f 113//6 119//6 121//6
f 129//129 135//129 136//129
f 122//130 128//197 129//131
f 121//133 119//133 125//133
f 124//134 123//134 129//134
f 122//135 121//198 127//136
f 120//138 126//199 125//139
f 134//141 143//200 141//142
f 127//144 133//201 134//145
f 125//147 126//202 132//148
f 130//150 136//203 132//151
f 129//153 128//204 134//154
f 125//156 131//156 133//156
f 138//157 140//157 139//157
f 133//158 131//158 137//158
f 135//159 141//159 142//159
f 134//160 133//205 139//161
f 132//163 144//206 137//164
f 132//166 136//207 142//167
f 138//169 142//169 141//169
f 148//4 152//4 149//4
f 150//6 149//6 152//6
f 146//2 150//2 151//2
f 147//3 151//3 152//3
f 145//1 149//1 150//1
