# Blender 3.6.0
# www.blender.org
o Banner.002
v 0.736263 3.009705 0.009997
v 0.736263 3.043504 -0.009517
v 0.736263 3.009705 0.049025
v 0.736263 3.043504 0.068539
v 0.736263 3.077303 0.049025
v 0.736263 3.077303 0.009997
v 0.220423 3.009705 0.049025
v 0.220423 3.009705 0.009997
v 0.220423 3.077303 0.009997
v 0.220423 3.077303 0.049025
v 0.220423 3.043504 0.068539
v 0.220423 3.043504 -0.009517
v 0.286841 3.009705 0.009997
v 0.286841 3.077303 0.049025
v 0.286841 3.043504 -0.009517
v 0.286841 3.009705 0.049025
v 0.286841 3.077303 0.009997
v 0.286841 3.043504 0.068539
v -0.736263 3.009705 0.009997
v -0.736263 3.043504 -0.009517
v -0.736263 3.009705 0.049025
v -0.736263 3.043504 0.068539
v -0.736263 3.077303 0.049025
v -0.736263 3.077303 0.009997
v -0.220423 3.009705 0.049025
v -0.220423 3.009705 0.009997
v -0.220423 3.077303 0.009997
v -0.220423 3.077303 0.049025
v -0.220423 3.043504 0.068539
v -0.220423 3.043504 -0.009517
v -0.286841 3.009705 0.009997
v -0.286841 3.077303 0.049025
v -0.286841 3.043504 -0.009517
v -0.286841 3.009705 0.049025
v -0.286841 3.077303 0.009997
v -0.286841 3.043504 0.068539
v 0.000000 3.009705 0.009997
v 0.000000 3.043504 -0.009517
v 0.000000 3.009705 0.049025
v 0.000000 3.043504 0.068539
v 0.000000 3.077303 0.049025
v 0.000000 3.077303 0.009997
v 0.000000 0.098411 -0.037236
v 0.000000 3.358415 -0.037236
v 0.032247 0.098411 -0.018618
v 0.032247 3.358415 -0.018618
v 0.032247 0.098411 0.018618
v 0.032247 3.358415 0.018617
v -0.000000 0.098411 0.037236
v -0.000000 3.358415 0.037235
v -0.032247 0.098411 0.018618
v -0.032247 3.358415 0.018617
v -0.032247 0.098411 -0.018618
v -0.032247 3.358415 -0.018618
v 0.012462 2.735945 -0.033376
v 0.041366 2.735945 -0.016688
v 0.041366 2.735945 0.016687
v 0.012462 2.735945 0.033375
v -0.016442 2.735945 0.016687
v -0.016442 2.735945 -0.016688
v 0.027831 2.682273 -0.016727
v 0.027831 2.682273 0.016727
v -0.001141 2.682273 0.033454
v -0.030113 2.682273 0.016727
v -0.030113 2.682273 -0.016727
v -0.001141 2.682273 -0.033455
v 0.039988 0.392685 -0.018403
v 0.039988 0.392685 0.018402
v 0.008114 0.392685 0.036805
v -0.023760 0.392685 0.018402
v -0.023760 0.392685 -0.018403
v 0.008114 0.392685 -0.036805
v -0.000172 0.488483 -0.036665
v 0.031580 0.488483 -0.018332
v 0.031580 0.488483 0.018332
v -0.000172 0.488483 0.036665
v -0.031925 0.488483 0.018332
v -0.031925 0.488483 -0.018332
v 0.511552 3.009705 0.009997
v 0.511552 3.053497 0.049025
v 0.511552 3.043504 -0.009517
v 0.511552 3.009705 0.049025
v 0.511552 3.053498 0.009997
v 0.511552 3.043504 0.068539
v 0.531459 3.009705 0.009997
v 0.531459 3.077303 0.049025
v 0.531459 3.043504 -0.009517
v 0.531459 3.009705 0.049025
v 0.531459 3.077303 0.009997
v 0.531459 3.043504 0.068539
vn -0.0000 -1.0000 -0.0000
vn -0.0000 1.0000 -0.0000
vn -0.0000 -0.5000 0.8660
vn -0.0000 -0.5000 -0.8660
vn -0.0000 0.5000 -0.8660
vn -0.0000 0.5000 0.8660
vn 0.1053 0.9944 -0.0000
vn 0.0056 0.8622 -0.5065
vn 0.0501 0.5282 -0.8476
vn 0.0529 0.4993 -0.8648
vn 0.0056 0.8622 0.5065
vn 0.0501 0.5282 0.8476
vn -0.0000 0.8901 0.4558
vn 0.5000 0.0046 -0.8660
vn 0.9999 0.0146 -0.0000
vn 0.5000 0.0046 0.8660
vn -0.4999 -0.0154 0.8659
vn -0.9997 -0.0254 -0.0000
vn -0.4999 -0.0154 -0.8659
vn -0.4960 0.1269 -0.8590
vn -0.9691 0.2468 -0.0000
vn -0.4960 0.1270 0.8590
vn 0.4961 -0.1245 0.8593
vn 0.9696 -0.2445 -0.0000
vn 0.4961 -0.1245 -0.8593
vn 0.5000 0.0015 -0.8660
vn 1.0000 0.0017 -0.0000
vn 0.5000 0.0015 0.8660
vn -0.5000 0.0010 0.8660
vn -1.0000 0.0008 -0.0000
vn -0.5000 0.0010 -0.8660
vn -0.4999 0.0151 -0.8659
vn -0.9996 0.0288 -0.0000
vn -0.4999 0.0151 0.8659
vn 0.5000 -0.0125 0.8660
vn 0.9997 -0.0263 -0.0000
vn 0.5000 -0.0125 -0.8660
vn -0.4996 -0.0419 -0.8653
vn -0.9964 -0.0849 -0.0000
vn -0.4996 -0.0419 0.8653
vn 0.4995 0.0445 0.8652
vn 0.9962 0.0874 -0.0000
vn 0.4995 0.0445 -0.8652
vn -0.2872 0.7015 0.6522
vn -0.3594 0.6294 0.6890
vn -0.2872 0.7015 -0.6522
vn -0.3594 0.6294 -0.6890
vn -0.5132 0.4291 -0.7433
vn -0.7671 0.6415 -0.0000
vn -0.0000 0.8901 -0.4558
vn 0.0529 0.4993 0.8648
vn -0.4960 0.1270 -0.8590
vn -0.5132 0.4291 0.7433
s 1
f 7//1 37//1 8//1
f 9//2 41//2 10//2
f 11//3 39//3 7//3
f 8//4 38//4 12//4
f 12//5 42//5 9//5
f 10//6 40//6 11//6
f 82//1 13//1 79//1
f 83//7 14//7 80//7
f 84//3 16//3 82//3
f 79//4 15//4 81//4
f 83//8 15//9 17//10
f 80//11 18//12 84//13
f 37//1 25//1 26//1
f 41//2 27//2 28//2
f 39//3 29//3 25//3
f 38//4 26//4 30//4
f 42//5 30//5 27//5
f 40//6 28//6 29//6
f 31//1 21//1 19//1
f 32//2 24//2 23//2
f 34//3 22//3 21//3
f 33//4 19//4 20//4
f 35//5 20//5 24//5
f 36//6 23//6 22//6
f 55//14 46//14 56//14
f 46//15 57//15 56//15
f 48//16 58//16 57//16
f 50//17 59//17 58//17
f 52//18 60//18 59//18
f 60//19 44//19 55//19
f 45//1 49//1 53//1
f 60//20 66//20 65//20
f 59//21 65//21 64//21
f 63//22 59//22 64//22
f 62//23 58//23 63//23
f 61//24 57//24 62//24
f 55//25 61//25 66//25
f 73//26 61//26 74//26
f 74//27 62//27 75//27
f 62//28 76//28 75//28
f 63//29 77//29 76//29
f 64//30 78//30 77//30
f 78//31 66//31 73//31
f 71//32 43//32 53//32
f 70//33 53//33 51//33
f 49//34 70//34 51//34
f 47//35 69//35 49//35
f 67//36 47//36 45//36
f 72//37 45//37 43//37
f 71//38 73//38 72//38
f 77//39 71//39 70//39
f 76//40 70//40 69//40
f 75//41 69//41 68//41
f 74//42 68//42 67//42
f 72//43 74//43 67//43
f 90//44 80//45 84//13
f 87//46 83//47 89//48
f 85//4 81//4 87//4
f 90//3 82//3 88//3
f 86//49 83//49 80//49
f 88//1 79//1 85//1
f 3//1 85//1 1//1
f 6//2 86//2 5//2
f 4//3 88//3 3//3
f 1//4 87//4 2//4
f 2//5 89//5 6//5
f 5//6 90//6 4//6
f 7//1 39//1 37//1
f 9//2 42//2 41//2
f 11//3 40//3 39//3
f 8//4 37//4 38//4
f 12//5 38//5 42//5
f 10//6 41//6 40//6
f 82//1 16//1 13//1
f 83//7 17//7 14//7
f 84//3 18//3 16//3
f 79//4 13//4 15//4
f 83//8 81//50 15//9
f 80//11 14//51 18//12
f 37//1 39//1 25//1
f 41//2 42//2 27//2
f 39//3 40//3 29//3
f 38//4 37//4 26//4
f 42//5 38//5 30//5
f 40//6 41//6 28//6
f 31//1 34//1 21//1
f 32//2 35//2 24//2
f 34//3 36//3 22//3
f 33//4 31//4 19//4
f 35//5 33//5 20//5
f 36//6 32//6 23//6
f 55//14 44//14 46//14
f 46//15 48//15 57//15
f 48//16 50//16 58//16
f 50//17 52//17 59//17
f 52//18 54//18 60//18
f 60//19 54//19 44//19
f 53//1 43//1 45//1
f 45//1 47//1 49//1
f 49//1 51//1 53//1
f 60//20 55//52 66//20
f 59//21 60//21 65//21
f 63//22 58//22 59//22
f 62//23 57//23 58//23
f 61//24 56//24 57//24
f 55//25 56//25 61//25
f 73//26 66//26 61//26
f 74//27 61//27 62//27
f 62//28 63//28 76//28
f 63//29 64//29 77//29
f 64//30 65//30 78//30
f 78//31 65//31 66//31
f 71//32 72//32 43//32
f 70//33 71//33 53//33
f 49//34 69//34 70//34
f 47//35 68//35 69//35
f 67//36 68//36 47//36
f 72//37 67//37 45//37
f 71//38 78//38 73//38
f 77//39 78//39 71//39
f 76//40 77//40 70//40
f 75//41 76//41 69//41
f 74//42 75//42 68//42
f 72//43 73//43 74//43
f 90//44 86//53 80//45
f 87//46 81//50 83//47
f 85//4 79//4 81//4
f 90//3 84//3 82//3
f 86//49 89//49 83//49
f 88//1 82//1 79//1
f 3//1 88//1 85//1
f 6//2 89//2 86//2
f 4//3 90//3 88//3
f 1//4 85//4 87//4
f 2//5 87//5 89//5
f 5//6 86//6 90//6
