# Blender 3.6.0
# www.blender.org
o Chest_Base.003
v -0.050367 0.402303 0.433321
v -0.001024 0.482387 0.433321
v -0.050367 0.402303 0.346193
v -0.012700 0.438673 0.433321
v 0.063949 0.402303 0.433321
v 0.026281 0.438673 0.433321
v 0.063949 0.402303 0.346193
v 0.014606 0.482387 0.433321
v -0.040610 0.439394 0.433321
v -0.040610 0.439394 0.346193
v 0.054191 0.439394 0.346193
v 0.054191 0.439394 0.433321
v -0.012962 0.572205 0.433321
v -0.054309 0.512979 0.433321
v -0.035478 0.564271 0.433321
v -0.050613 0.542592 0.433321
v -0.054309 0.512979 0.363017
v -0.012962 0.572205 0.363017
v -0.050613 0.542592 0.363017
v -0.035478 0.564271 0.363017
v 0.067891 0.512979 0.433321
v 0.026543 0.572205 0.433321
v 0.064194 0.542592 0.433321
v 0.049060 0.564271 0.433321
v 0.026543 0.572205 0.363017
v 0.067891 0.512979 0.363017
v 0.049060 0.564271 0.363017
v 0.064194 0.542592 0.363017
v -0.003058 0.511484 0.433321
v 0.002188 0.513333 0.433321
v -0.006585 0.506433 0.433321
v -0.007446 0.499533 0.433321
v 0.011393 0.513333 0.433321
v 0.016640 0.511484 0.433321
v 0.020166 0.506433 0.433321
v 0.021027 0.499533 0.433321
v 0.011393 0.513333 0.374520
v 0.016640 0.511484 0.374520
v -0.007446 0.499533 0.374520
v -0.006585 0.506433 0.374520
v -0.003058 0.511484 0.374520
v 0.002188 0.513333 0.374520
v -0.012700 0.438673 0.374520
v -0.001024 0.482387 0.374520
v 0.014606 0.482387 0.374520
v 0.026281 0.438673 0.374520
v 0.020166 0.506433 0.374520
v 0.021027 0.499533 0.374520
vn -0.0000 1.0000 -0.0000
vn 0.9831 -0.1830 -0.0000
vn -0.9661 -0.2580 -0.0000
vn -0.9831 -0.1830 -0.0000
vn -0.0000 -1.0000 -0.0000
vn -0.0378 0.0639 -0.9972
vn 0.0824 0.1077 -0.9908
vn 0.0248 0.1551 -0.9876
vn -0.0000 -0.0000 1.0000
vn 0.9671 0.2544 -0.0000
vn -0.0000 -0.0000 -1.0000
vn -0.9671 0.2544 -0.0000
vn -0.3324 0.9432 -0.0000
vn -0.8200 0.5724 -0.0000
vn -0.9923 0.1239 -0.0000
vn 0.3324 0.9432 -0.0000
vn 0.8200 0.5724 -0.0000
vn 0.9923 0.1239 -0.0000
vn -0.9365 0.3507 -0.0000
vn 0.8200 -0.5724 -0.0000
vn -0.3324 -0.9431 -0.0000
vn -0.3324 -0.9432 -0.0000
vn 0.9661 -0.2580 -0.0000
vn 0.3324 -0.9432 -0.0000
vn 0.3324 -0.9431 -0.0000
vn -0.8200 -0.5724 -0.0000
vn 0.9923 -0.1239 -0.0000
vn 0.9365 0.3507 -0.0000
vn -0.9923 -0.1239 -0.0000
vn -0.0000 0.2229 -0.9748
vn -0.0794 0.0913 -0.9926
vn 0.5907 0.0737 -0.8035
s 1
f 18//1 22//1 25//1
f 26//2 12//2 11//2
f 8//3 46//3 6//3
f 9//4 17//4 10//4
f 7//5 1//5 3//5
f 20//6 28//7 11//8
f 16//9 29//9 15//9
f 11//10 5//10 7//10
f 10//11 7//11 3//11
f 9//12 3//12 1//12
f 18//13 15//13 13//13
f 20//14 16//14 15//14
f 19//15 14//15 16//15
f 22//16 27//16 25//16
f 24//17 28//17 27//17
f 23//18 26//18 28//18
f 13//9 33//9 22//9
f 36//19 45//19 8//19
f 21//9 35//9 36//9
f 23//9 34//9 35//9
f 14//9 2//9 32//9
f 22//9 34//9 24//9
f 9//9 4//9 2//9
f 12//9 6//9 5//9
f 21//9 8//9 12//9
f 13//9 29//9 30//9
f 5//9 4//9 1//9
f 14//9 31//9 16//9
f 46//9 44//9 43//9
f 38//9 40//9 44//9
f 31//20 41//20 29//20
f 33//21 38//22 34//21
f 4//23 44//23 2//23
f 30//5 37//5 33//5
f 6//1 43//1 4//1
f 29//24 42//25 30//24
f 34//26 47//26 35//26
f 32//27 40//27 31//27
f 2//28 39//28 32//28
f 35//29 48//29 36//29
f 18//1 13//1 22//1
f 26//2 21//2 12//2
f 8//3 45//3 46//3
f 9//4 14//4 17//4
f 7//5 5//5 1//5
f 11//8 10//30 17//31
f 17//31 19//11 20//6
f 20//6 18//11 25//11
f 25//11 27//11 28//7
f 28//7 26//32 11//8
f 11//8 17//31 20//6
f 20//6 25//11 28//7
f 16//9 31//9 29//9
f 11//10 12//10 5//10
f 10//11 11//11 7//11
f 9//12 10//12 3//12
f 18//13 20//13 15//13
f 20//14 19//14 16//14
f 19//15 17//15 14//15
f 22//16 24//16 27//16
f 24//17 23//17 28//17
f 23//18 21//18 26//18
f 13//9 30//9 33//9
f 36//19 48//19 45//19
f 21//9 23//9 35//9
f 23//9 24//9 34//9
f 14//9 9//9 2//9
f 22//9 33//9 34//9
f 9//9 1//9 4//9
f 12//9 8//9 6//9
f 21//9 36//9 8//9
f 13//9 15//9 29//9
f 5//9 6//9 4//9
f 14//9 32//9 31//9
f 46//9 45//9 44//9
f 44//9 45//9 48//9
f 48//9 47//9 38//9
f 38//9 37//9 42//9
f 42//9 41//9 40//9
f 40//9 39//9 44//9
f 44//9 48//9 38//9
f 38//9 42//9 40//9
f 31//20 40//20 41//20
f 33//21 37//22 38//22
f 4//23 43//23 44//23
f 30//5 42//5 37//5
f 6//1 46//1 43//1
f 29//24 41//25 42//25
f 34//26 38//26 47//26
f 32//27 39//27 40//27
f 2//28 44//28 39//28
f 35//29 47//29 48//29
