# Blender 3.6.0
# www.blender.org
o Column
v -0.540727 0.508889 -0.453752
v -0.540727 0.508889 0.453752
v 0.540727 0.508889 -0.453752
v 0.540727 0.508889 0.453752
v 0.453752 0.290631 0.540727
v 0.540727 0.290631 0.453752
v 0.540727 0.290631 -0.453752
v 0.453752 0.290631 -0.540727
v -0.453752 0.290631 -0.540727
v -0.540727 0.290631 -0.453752
v -0.540727 0.290631 0.453752
v -0.453752 0.290631 0.540727
v -0.556261 0.008336 0.652060
v -0.652059 0.008336 0.556261
v -0.652060 0.008336 -0.556261
v -0.556261 0.008336 -0.652059
v 0.652060 0.008336 0.556261
v 0.556261 0.008336 0.652059
v 0.556261 0.008336 -0.652060
v 0.652059 0.008336 -0.556261
v -0.595587 0.277396 0.499788
v -0.499788 0.277396 0.595586
v -0.641206 0.231777 0.545407
v -0.545407 0.231777 0.641206
v -0.499788 0.277396 -0.595587
v -0.595587 0.277396 -0.499788
v -0.545407 0.231777 -0.641206
v -0.641206 0.231777 -0.545407
v 0.499788 0.277396 0.595586
v 0.595587 0.277396 0.499788
v 0.545407 0.231777 0.641206
v 0.641206 0.231777 0.545407
v 0.595587 0.277396 -0.499788
v 0.499788 0.277396 -0.595587
v 0.641206 0.231777 -0.545407
v 0.545407 0.231777 -0.641206
v -0.453752 0.508889 0.540727
v 0.453752 0.508889 0.540727
v 0.453752 0.508889 -0.540727
v -0.453752 0.508889 -0.540727
v 0.416093 0.795179 0.495850
v 0.495850 0.795179 0.416093
v 0.495850 0.795179 -0.416093
v 0.416093 0.795179 -0.495850
v -0.416093 0.933696 0.495850
v 0.416093 0.933696 0.495850
v -0.495850 0.933696 -0.416093
v -0.495850 0.933696 0.416093
v 0.495850 0.933696 -0.416093
v 0.495850 0.933696 0.416093
v -0.416093 0.933696 -0.495850
v 0.416093 0.933696 -0.495850
v -0.487219 0.431889 0.571127
v -0.571127 0.431889 0.487219
v -0.571127 0.431889 -0.487219
v -0.487219 0.431889 -0.571127
v 0.571127 0.431889 0.487219
v 0.487219 0.431889 0.571127
v 0.487219 0.431889 -0.571127
v 0.571127 0.431889 -0.487219
v -0.521663 0.795179 0.437755
v -0.437755 0.795179 0.521663
v -0.561621 0.685332 0.477712
v -0.477712 0.685332 0.561621
v -0.437755 0.795179 -0.521664
v -0.521663 0.795179 -0.437755
v -0.477712 0.729337 -0.561621
v -0.561621 0.729337 -0.477712
v 0.437755 0.795179 0.521663
v 0.521663 0.795179 0.437755
v 0.477712 0.729337 0.561621
v 0.561621 0.729337 0.477712
v 0.521663 0.795179 -0.437755
v 0.437755 0.795179 -0.521664
v 0.561621 0.729337 -0.477712
v 0.477712 0.729337 -0.561621
v -0.416093 0.795179 -0.495850
v -0.495850 0.795179 -0.416093
v -0.495850 0.795179 0.416093
v -0.416093 0.795179 0.495850
v -0.399143 0.933696 0.475650
v -0.475651 0.933696 0.399143
v -0.475651 0.933696 -0.399143
v -0.399143 0.933696 -0.475651
v 0.399143 0.933696 -0.475651
v 0.475651 0.933696 -0.399143
v 0.475651 0.933696 0.399143
v 0.399143 0.933696 0.475650
v -0.399143 1.695571 0.475650
v -0.475651 1.695571 0.399143
v -0.475651 1.695571 -0.399143
v -0.399143 1.695571 -0.475651
v 0.399143 1.695571 -0.475651
v 0.475651 1.695571 -0.399143
v 0.475651 1.695571 0.399143
v 0.399143 1.695571 0.475650
v -0.370189 1.732767 0.441146
v -0.441146 1.732767 0.370188
v -0.441146 1.732767 -0.370189
v -0.370189 1.732767 -0.441146
v 0.370189 1.732767 -0.441146
v 0.441146 1.732767 -0.370189
v 0.441146 1.732767 0.370188
v 0.370189 1.732767 0.441146
v -0.370189 1.753485 0.441146
v -0.441146 1.753485 0.370188
v -0.441146 1.753485 -0.370189
v -0.370189 1.753485 -0.441146
v 0.370189 1.753485 -0.441146
v 0.441146 1.753485 -0.370189
v 0.441146 1.753485 0.370188
v 0.370189 1.753485 0.441146
v -0.399212 1.785116 0.475733
v -0.475733 1.785116 0.399212
v -0.475733 1.785116 -0.399213
v -0.399212 1.785116 -0.475733
v 0.399212 1.785116 -0.475733
v 0.475733 1.785116 -0.399213
v 0.475733 1.785116 0.399212
v 0.399212 1.785116 0.475733
v -0.399212 2.769651 0.475733
v -0.475733 2.769651 0.399212
v -0.475733 2.769651 -0.399213
v -0.399212 2.769651 -0.475733
v 0.399212 2.769651 -0.475733
v 0.475733 2.769651 -0.399213
v 0.475733 2.769651 0.399212
v 0.399212 2.769651 0.475733
v -0.376851 2.801282 0.449085
v -0.449085 2.801282 0.376850
v -0.449085 2.801282 -0.376851
v -0.376851 2.801282 -0.449085
v 0.376851 2.801282 -0.449085
v 0.449085 2.801282 -0.376851
v 0.449085 2.801282 0.376850
v 0.376851 2.801282 0.449085
v -0.376851 2.817876 0.449085
v -0.449085 2.817876 0.376850
v -0.449085 2.817876 -0.376851
v -0.376851 2.817876 -0.449085
v 0.376851 2.817876 -0.449085
v 0.449085 2.817876 -0.376851
v 0.449085 2.817876 0.376850
v 0.376851 2.817876 0.449085
v -0.394568 2.850443 0.470198
v -0.470199 2.850443 0.394568
v -0.470199 2.850443 -0.394569
v -0.394568 2.850443 -0.470199
v 0.394568 2.850443 -0.470199
v 0.470199 2.850443 -0.394569
v 0.470199 2.850443 0.394568
v 0.394568 2.850443 0.470198
v -0.394568 3.753236 0.470198
v -0.470199 3.753236 0.394567
v -0.470199 3.753236 -0.394569
v -0.394568 3.753236 -0.470199
v 0.394568 3.753236 -0.470199
v 0.470199 3.753236 -0.394569
v 0.470199 3.753236 0.394567
v 0.394568 3.753236 0.470198
v -0.472947 3.753236 0.563601
v -0.563601 3.753236 0.472946
v -0.563601 3.753236 -0.472948
v -0.472947 3.753236 -0.563602
v 0.472947 3.753236 -0.563602
v 0.563601 3.753236 -0.472948
v 0.563601 3.753236 0.472946
v 0.472947 3.753236 0.563601
v -0.472947 4.027846 0.563601
v -0.462182 4.073401 0.537612
v -0.537612 4.073401 0.462181
v -0.563601 4.027846 0.472946
v -0.563601 4.027846 -0.472948
v -0.537612 4.073401 -0.462183
v -0.462182 4.073401 -0.537613
v -0.472947 4.027846 -0.563602
v 0.472947 4.027846 -0.563602
v 0.462182 4.073401 -0.537613
v 0.537612 4.073401 -0.462183
v 0.563601 4.027846 -0.472948
v 0.563601 4.027846 0.472946
v 0.537612 4.073401 0.462181
v 0.462182 4.073401 0.537612
v 0.472947 4.027846 0.563601
v 0.475651 1.467008 -0.399143
v 0.475651 1.467008 0.399143
v 0.362009 1.467008 0.475650
v -0.370039 1.452456 0.475650
v 0.356765 1.467008 -0.475651
v -0.475651 1.467008 0.399143
v -0.399143 1.467008 -0.475651
v -0.475651 1.467008 -0.399143
v 0.475733 2.487265 -0.339182
v 0.475733 2.487265 0.399212
v 0.399212 2.487265 0.475733
v -0.399212 2.293447 0.475733
v 0.399212 2.487265 -0.475733
v -0.475733 2.293447 0.399212
v -0.399212 2.293447 -0.475733
v -0.475733 2.293447 -0.399213
v 0.475733 2.628458 -0.339182
v 0.355345 2.628458 0.475733
v 0.399212 2.628458 -0.475733
v -0.399212 2.434640 -0.475733
v 0.475733 2.628458 0.399212
v -0.399212 2.434640 0.475733
v -0.475733 2.434640 0.326282
v -0.475733 2.434640 -0.399213
v 0.470199 3.053960 -0.394569
v 0.470199 3.053960 0.394568
v 0.355338 3.053960 0.470198
v -0.394568 3.053960 0.470198
v 0.336658 3.053960 -0.470199
v -0.470199 3.053960 0.394568
v -0.394568 3.053960 -0.470199
v -0.470199 3.053960 -0.394569
v 0.475651 1.275276 0.399143
v -0.380502 1.265955 0.475650
v -0.475651 1.275276 0.399143
v -0.475651 1.275275 -0.399143
v 0.475651 1.275275 -0.399143
v 0.417411 1.275276 0.475650
v 0.372000 1.275275 -0.475651
v -0.399143 1.275275 -0.475651
vn -0.0000 0.7071 -0.7071
vn -0.0000 0.7071 0.7071
vn -0.0000 0.0485 -0.9988
vn -0.0000 0.0485 0.9988
vn 0.9988 0.0485 -0.0000
vn 0.2345 0.9721 -0.0000
vn 0.7071 0.7071 -0.0000
vn 0.7071 -0.0000 -0.7071
vn -0.7071 0.7071 -0.0000
vn -0.9988 0.0485 -0.0000
vn -0.4082 0.8165 0.4082
vn -0.4082 0.8165 -0.4082
vn 0.4082 0.8165 -0.4082
vn 0.4082 0.8165 0.4082
vn 0.7054 0.0685 0.7054
vn -0.7054 0.0685 0.7054
vn -0.7054 0.0685 -0.7054
vn 0.7054 0.0685 -0.7054
vn -0.0000 -1.0000 -0.0000
vn -0.0000 0.9721 0.2345
vn 0.1290 0.9832 0.1290
vn 0.1290 0.9832 -0.1290
vn -0.0000 0.9721 -0.2345
vn -0.2345 0.9721 -0.0000
vn -0.1290 0.9832 -0.1290
vn -0.1290 0.9832 0.1290
vn -0.0000 1.0000 -0.0000
vn -0.0000 -0.0000 1.0000
vn -1.0000 -0.0000 -0.0000
vn 1.0000 -0.0000 -0.0000
vn -0.0000 -0.0000 -1.0000
vn -0.7071 -0.0000 -0.7071
vn 0.7071 -0.0000 0.7071
vn -0.7071 -0.0000 0.7071
vn -0.0000 0.5188 -0.8549
vn -0.0099 0.4140 0.9102
vn -0.0100 0.4140 0.9102
vn -0.0000 0.0319 -0.9995
vn -0.0008 0.0345 0.9994
vn -0.0008 0.0346 0.9994
vn 0.9995 0.0319 -0.0000
vn 0.8549 0.5188 -0.0000
vn -0.9102 0.4140 0.0099
vn -0.9102 0.4140 0.0100
vn -0.9994 0.0346 0.0008
vn -0.9994 0.0345 0.0008
vn -0.6288 0.4574 0.6288
vn -0.5366 0.6513 -0.5366
vn 0.5366 0.6513 -0.5366
vn 0.5366 0.6513 0.5366
vn 0.7064 0.0452 0.7064
vn -0.7061 0.0530 0.7061
vn -0.7064 0.0452 -0.7064
vn 0.7064 0.0452 -0.7064
vn -0.4513 0.7699 -0.4513
vn 0.6155 -0.0571 -0.7860
vn 0.6156 -0.0571 -0.7860
vn -0.6446 -0.0398 0.7635
vn 0.6261 -0.0509 0.7781
vn 0.7331 0.6801 -0.0000
vn -0.0000 0.6801 0.7331
vn 0.4513 0.7699 -0.4513
vn -0.4513 0.7699 0.4513
vn -0.0000 0.6801 -0.7331
vn -0.7331 0.6801 -0.0000
vn 0.4513 0.7699 0.4513
vn 0.4068 -0.8180 -0.4068
vn -0.4068 -0.8180 0.4068
vn -0.0000 -0.7379 -0.6749
vn -0.6749 -0.7379 -0.0000
vn 0.4068 -0.8180 0.4068
vn -0.4068 -0.8180 -0.4068
vn 0.6749 -0.7379 -0.0000
vn -0.0000 -0.7379 0.6749
vn 0.4767 0.7386 0.4767
vn 0.8060 -0.1231 -0.5789
vn 0.8060 -0.1231 -0.5790
vn -0.8264 -0.0609 0.5597
vn 0.6109 -0.0949 0.7860
vn -0.4767 0.7386 -0.4767
vn 0.7648 0.6443 -0.0000
vn -0.0000 0.6443 0.7648
vn 0.4767 0.7386 -0.4767
vn -0.4767 0.7386 0.4767
vn -0.0000 0.6443 -0.7648
vn -0.7648 0.6443 -0.0000
vn -0.0000 -0.5440 0.8391
vn 0.5406 -0.6446 -0.5406
vn -0.5406 -0.6446 0.5406
vn -0.0000 -0.5440 -0.8391
vn -0.8391 -0.5440 -0.0000
vn 0.5406 -0.6446 0.5406
vn -0.5406 -0.6446 -0.5406
vn 0.8391 -0.5440 -0.0000
vn 0.5858 -0.0243 -0.8101
vn 0.6217 -0.0174 0.7830
vn 0.6218 -0.0174 0.7830
vn -0.6142 0.4955 0.6142
vn -0.6142 0.4955 -0.6142
vn 0.6142 0.4955 -0.6142
vn 0.6142 0.4955 0.6142
vn -0.0000 0.4955 0.8686
vn -0.8686 0.4955 -0.0000
vn 0.8686 0.4955 -0.0000
vn -0.0000 0.4955 -0.8686
vn 0.6619 0.0956 0.7435
vn -0.6048 0.0167 0.7962
vn 0.5664 0.0225 -0.8238
vn 0.8120 0.0249 -0.5832
vn 0.6109 0.0949 0.7860
vn -0.8194 0.1433 0.5550
vn 0.8724 -0.0000 -0.4889
vn 0.6207 0.0598 0.7817
vn 0.5839 0.0831 -0.8075
vn 0.5840 0.0831 -0.8075
vn 0.6471 0.0257 -0.7619
vn 0.6472 0.0257 -0.7619
vn -0.6648 0.0184 0.7468
vn 0.7503 -0.0201 0.6607
vn 0.7503 -0.0201 0.6608
vn -0.0008 0.0344 0.9994
vn -0.9994 0.0344 0.0008
vn -0.6446 -0.0398 0.7634
vn -0.6647 0.0184 0.7468
s 1
f 34//1 27//1 25//1
f 22//2 31//2 29//2
f 27//3 19//3 16//3
f 31//4 13//4 18//4
f 35//5 17//5 20//5
f 30//6 7//6 6//6
f 30//7 35//7 33//7
f 8//8 3//8 7//8
f 26//9 23//9 21//9
f 23//10 15//10 14//10
f 22//11 23//11 24//11
f 27//12 26//12 25//12
f 35//13 34//13 33//13
f 31//14 30//14 29//14
f 32//15 18//15 17//15
f 14//16 24//16 23//16
f 16//17 28//17 27//17
f 20//18 36//18 35//18
f 20//19 18//19 14//19
f 22//20 5//20 12//20
f 30//21 5//21 29//21
f 34//22 7//22 33//22
f 34//23 9//23 8//23
f 26//24 11//24 10//24
f 26//25 9//25 25//25
f 22//26 11//26 21//26
f 1//27 37//27 4//27
f 5//28 37//28 12//28
f 11//29 1//29 10//29
f 7//30 4//30 6//30
f 9//31 39//31 8//31
f 10//32 40//32 9//32
f 6//33 38//33 5//33
f 12//34 2//34 11//34
f 74//35 67//35 65//35
f 69//36 64//36 71//37
f 56//38 76//38 59//38
f 58//39 64//40 53//39
f 60//41 72//41 57//41
f 79//29 47//29 78//29
f 70//42 75//42 73//42
f 42//33 46//33 41//33
f 66//43 63//43 61//44
f 63//45 55//46 54//46
f 62//47 63//47 64//47
f 67//48 66//48 65//48
f 75//49 74//49 73//49
f 71//50 70//50 69//50
f 72//51 58//51 57//51
f 54//52 64//52 63//52
f 56//53 68//53 67//53
f 60//54 76//54 75//54
f 60//19 58//19 54//19
f 78//32 51//32 77//32
f 77//31 52//31 44//31
f 41//28 45//28 80//28
f 44//8 49//8 43//8
f 80//34 48//34 79//34
f 47//27 84//27 51//27
f 73//27 42//27 70//27
f 69//27 80//27 62//27
f 61//27 80//27 79//27
f 65//27 78//27 77//27
f 61//27 78//27 66//27
f 65//27 44//27 74//27
f 73//27 44//27 43//27
f 69//27 42//27 41//27
f 43//30 50//30 42//30
f 185//30 95//30 186//30
f 51//27 85//27 52//27
f 46//27 81//27 45//27
f 52//27 86//27 49//27
f 45//27 82//27 48//27
f 49//27 87//27 50//27
f 48//27 83//27 47//27
f 50//27 88//27 46//27
f 91//55 100//55 92//55
f 187//28 89//28 188//28
f 185//56 93//56 94//57
f 190//58 89//58 90//58
f 189//31 92//31 93//31
f 190//29 91//29 192//29
f 186//59 96//59 187//59
f 192//32 92//32 191//32
f 100//31 109//31 101//31
f 94//60 103//60 95//60
f 96//61 97//61 89//61
f 93//62 102//62 94//62
f 89//63 98//63 90//63
f 92//64 101//64 93//64
f 90//65 99//65 91//65
f 95//66 104//66 96//66
f 109//67 118//67 110//67
f 98//29 107//29 99//29
f 103//33 112//33 104//33
f 99//32 108//32 100//32
f 102//30 111//30 103//30
f 104//28 105//28 97//28
f 101//8 110//8 102//8
f 97//34 106//34 98//34
f 201//30 127//30 205//30
f 105//68 114//68 106//68
f 108//69 117//69 109//69
f 106//70 115//70 107//70
f 111//71 120//71 112//71
f 107//72 116//72 108//72
f 110//73 119//73 111//73
f 112//74 113//74 105//74
f 127//75 136//75 128//75
f 202//28 121//28 206//28
f 203//76 126//77 201//77
f 206//78 122//78 207//78
f 203//31 124//31 125//31
f 207//29 123//29 208//29
f 205//79 128//79 202//79
f 208//32 124//32 204//32
f 132//31 141//31 133//31
f 123//80 132//80 124//80
f 126//81 135//81 127//81
f 128//82 129//82 121//82
f 125//83 134//83 126//83
f 121//84 130//84 122//84
f 124//85 133//85 125//85
f 122//86 131//86 123//86
f 144//87 145//87 137//87
f 130//29 139//29 131//29
f 135//33 144//33 136//33
f 131//32 140//32 132//32
f 134//30 143//30 135//30
f 136//28 137//28 129//28
f 133//8 142//8 134//8
f 129//34 138//34 130//34
f 209//30 159//30 210//30
f 141//88 150//88 142//88
f 137//89 146//89 138//89
f 140//90 149//90 141//90
f 138//91 147//91 139//91
f 143//92 152//92 144//92
f 139//93 148//93 140//93
f 142//94 151//94 143//94
f 154//19 163//19 155//19
f 211//28 153//28 212//28
f 209//95 157//95 158//95
f 212//34 154//34 214//34
f 213//31 156//31 157//31
f 214//29 155//29 216//29
f 210//96 160//97 211//97
f 216//32 156//32 215//32
f 162//29 173//29 163//29
f 159//19 168//19 160//19
f 155//19 164//19 156//19
f 158//19 167//19 159//19
f 160//19 161//19 153//19
f 157//19 166//19 158//19
f 153//19 162//19 154//19
f 156//19 165//19 157//19
f 168//28 169//28 161//28
f 165//8 180//8 166//8
f 163//32 176//32 164//32
f 164//31 177//31 165//31
f 167//33 184//33 168//33
f 161//34 172//34 162//34
f 166//30 181//30 167//30
f 171//98 169//98 170//98
f 175//99 173//99 174//99
f 179//100 177//100 178//100
f 183//101 181//101 182//101
f 170//102 184//102 183//102
f 174//103 172//103 171//103
f 180//104 182//104 181//104
f 176//105 178//105 177//105
f 179//27 175//27 171//27
f 220//32 191//32 224//32
f 222//106 186//106 187//106
f 219//29 192//29 220//29
f 224//31 189//31 223//31
f 219//107 188//107 190//107
f 223//108 185//108 221//108
f 218//28 187//28 188//28
f 221//30 186//30 217//30
f 115//32 199//32 116//32
f 119//33 195//33 120//33
f 114//29 200//29 115//29
f 117//31 199//31 197//31
f 113//34 198//34 114//34
f 118//109 197//109 193//109
f 120//28 196//28 113//28
f 119//30 193//30 194//30
f 200//32 204//32 199//32
f 195//110 205//110 202//110
f 200//29 207//29 208//29
f 197//31 204//31 203//31
f 198//111 206//111 207//111
f 197//112 201//112 193//112
f 195//28 206//28 196//28
f 193//30 205//30 194//30
f 147//32 215//32 148//32
f 152//113 210//113 211//113
f 146//29 216//29 147//29
f 148//31 213//31 149//31
f 145//34 214//34 146//34
f 149//114 209//115 150//115
f 145//28 211//28 212//28
f 150//30 210//30 151//30
f 86//30 217//30 87//30
f 88//28 218//28 81//28
f 85//116 221//117 86//117
f 82//118 218//118 219//118
f 84//31 223//31 85//31
f 82//29 220//29 83//29
f 87//119 222//120 88//119
f 83//32 224//32 84//32
f 34//1 36//1 27//1
f 22//2 24//2 31//2
f 27//3 36//3 19//3
f 31//4 24//4 13//4
f 35//5 32//5 17//5
f 30//6 33//6 7//6
f 30//7 32//7 35//7
f 8//8 39//8 3//8
f 26//9 28//9 23//9
f 23//10 28//10 15//10
f 22//11 21//11 23//11
f 27//12 28//12 26//12
f 35//13 36//13 34//13
f 31//14 32//14 30//14
f 32//15 31//15 18//15
f 14//16 13//16 24//16
f 16//17 15//17 28//17
f 20//18 19//18 36//18
f 14//19 15//19 16//19
f 16//19 19//19 20//19
f 20//19 17//19 18//19
f 18//19 13//19 14//19
f 14//19 16//19 20//19
f 22//20 29//20 5//20
f 30//21 6//21 5//21
f 34//22 8//22 7//22
f 34//23 25//23 9//23
f 26//24 21//24 11//24
f 26//25 10//25 9//25
f 22//26 12//26 11//26
f 4//27 3//27 39//27
f 39//27 40//27 1//27
f 1//27 2//27 37//27
f 37//27 38//27 4//27
f 4//27 39//27 1//27
f 5//28 38//28 37//28
f 11//29 2//29 1//29
f 7//30 3//30 4//30
f 9//31 40//31 39//31
f 10//32 1//32 40//32
f 6//33 4//33 38//33
f 12//34 37//34 2//34
f 74//35 76//35 67//35
f 69//36 62//37 64//36
f 56//38 67//38 76//38
f 58//39 71//121 64//40
f 60//41 75//41 72//41
f 79//29 48//29 47//29
f 70//42 72//42 75//42
f 42//33 50//33 46//33
f 66//43 68//44 63//43
f 63//45 68//122 55//46
f 62//47 61//47 63//47
f 67//48 68//48 66//48
f 75//49 76//49 74//49
f 71//50 72//50 70//50
f 72//51 71//51 58//51
f 54//52 53//52 64//52
f 56//53 55//53 68//53
f 60//54 59//54 76//54
f 54//19 55//19 56//19
f 56//19 59//19 60//19
f 60//19 57//19 58//19
f 58//19 53//19 54//19
f 54//19 56//19 60//19
f 78//32 47//32 51//32
f 77//31 51//31 52//31
f 41//28 46//28 45//28
f 44//8 52//8 49//8
f 80//34 45//34 48//34
f 47//27 83//27 84//27
f 73//27 43//27 42//27
f 69//27 41//27 80//27
f 61//27 62//27 80//27
f 65//27 66//27 78//27
f 61//27 79//27 78//27
f 65//27 77//27 44//27
f 73//27 74//27 44//27
f 69//27 70//27 42//27
f 43//30 49//30 50//30
f 185//30 94//30 95//30
f 51//27 84//27 85//27
f 46//27 88//27 81//27
f 52//27 85//27 86//27
f 45//27 81//27 82//27
f 49//27 86//27 87//27
f 48//27 82//27 83//27
f 50//27 87//27 88//27
f 91//55 99//55 100//55
f 187//28 96//28 89//28
f 185//56 189//56 93//56
f 190//58 188//123 89//58
f 189//31 191//31 92//31
f 190//29 90//29 91//29
f 186//59 95//59 96//59
f 192//32 91//32 92//32
f 100//31 108//31 109//31
f 94//60 102//60 103//60
f 96//61 104//61 97//61
f 93//62 101//62 102//62
f 89//63 97//63 98//63
f 92//64 100//64 101//64
f 90//65 98//65 99//65
f 95//66 103//66 104//66
f 109//67 117//67 118//67
f 98//29 106//29 107//29
f 103//33 111//33 112//33
f 99//32 107//32 108//32
f 102//30 110//30 111//30
f 104//28 112//28 105//28
f 101//8 109//8 110//8
f 97//34 105//34 106//34
f 201//30 126//30 127//30
f 105//68 113//68 114//68
f 108//69 116//69 117//69
f 106//70 114//70 115//70
f 111//71 119//71 120//71
f 107//72 115//72 116//72
f 110//73 118//73 119//73
f 112//74 120//74 113//74
f 127//75 135//75 136//75
f 202//28 128//28 121//28
f 203//76 125//76 126//77
f 206//78 121//78 122//78
f 203//31 204//31 124//31
f 207//29 122//29 123//29
f 205//79 127//79 128//79
f 208//32 123//32 124//32
f 132//31 140//31 141//31
f 123//80 131//80 132//80
f 126//81 134//81 135//81
f 128//82 136//82 129//82
f 125//83 133//83 134//83
f 121//84 129//84 130//84
f 124//85 132//85 133//85
f 122//86 130//86 131//86
f 144//87 152//87 145//87
f 130//29 138//29 139//29
f 135//33 143//33 144//33
f 131//32 139//32 140//32
f 134//30 142//30 143//30
f 136//28 144//28 137//28
f 133//8 141//8 142//8
f 129//34 137//34 138//34
f 209//30 158//30 159//30
f 141//88 149//88 150//88
f 137//89 145//89 146//89
f 140//90 148//90 149//90
f 138//91 146//91 147//91
f 143//92 151//92 152//92
f 139//93 147//93 148//93
f 142//94 150//94 151//94
f 154//19 162//19 163//19
f 211//28 160//28 153//28
f 209//95 213//95 157//95
f 212//34 153//34 154//34
f 213//31 215//31 156//31
f 214//29 154//29 155//29
f 210//96 159//96 160//97
f 216//32 155//32 156//32
f 162//29 172//29 173//29
f 159//19 167//19 168//19
f 155//19 163//19 164//19
f 158//19 166//19 167//19
f 160//19 168//19 161//19
f 157//19 165//19 166//19
f 153//19 161//19 162//19
f 156//19 164//19 165//19
f 168//28 184//28 169//28
f 165//8 177//8 180//8
f 163//32 173//32 176//32
f 164//31 176//31 177//31
f 167//33 181//33 184//33
f 161//34 169//34 172//34
f 166//30 180//30 181//30
f 171//98 172//98 169//98
f 175//99 176//99 173//99
f 179//100 180//100 177//100
f 183//101 184//101 181//101
f 170//102 169//102 184//102
f 174//103 173//103 172//103
f 180//104 179//104 182//104
f 176//105 175//105 178//105
f 171//27 170//27 183//27
f 183//27 182//27 179//27
f 179//27 178//27 175//27
f 175//27 174//27 171//27
f 171//27 183//27 179//27
f 220//32 192//32 191//32
f 222//106 217//106 186//106
f 219//29 190//29 192//29
f 224//31 191//31 189//31
f 219//107 218//107 188//107
f 223//108 189//108 185//108
f 218//28 222//28 187//28
f 221//30 185//30 186//30
f 115//32 200//32 199//32
f 119//33 194//33 195//33
f 114//29 198//29 200//29
f 117//31 116//31 199//31
f 113//34 196//34 198//34
f 118//109 117//109 197//109
f 120//28 195//28 196//28
f 119//30 118//30 193//30
f 200//32 208//32 204//32
f 195//110 194//110 205//110
f 200//29 198//29 207//29
f 197//31 199//31 204//31
f 198//111 196//111 206//111
f 197//112 203//112 201//112
f 195//28 202//28 206//28
f 193//30 201//30 205//30
f 147//32 216//32 215//32
f 152//113 151//113 210//113
f 146//29 214//29 216//29
f 148//31 215//31 213//31
f 145//34 212//34 214//34
f 149//114 213//115 209//115
f 145//28 152//28 211//28
f 150//30 209//30 210//30
f 86//30 221//30 217//30
f 88//28 222//28 218//28
f 85//116 223//116 221//117
f 82//118 81//124 218//118
f 84//31 224//31 223//31
f 82//29 219//29 220//29
f 87//119 217//120 222//120
f 83//32 220//32 224//32
