# Blender 3.6.0
# www.blender.org
o Sword
v 0.036770 0.338172 -0.012563
v 0.097389 1.086441 -0.012563
v 0.036770 0.338172 0.012563
v 0.083725 0.338172 -0.012563
v 0.083725 0.338172 0.012563
v 0.036770 1.089000 0.012563
v 0.097389 1.086441 0.012563
v 0.083725 1.020357 0.012563
v 0.036770 1.016647 -0.012563
v 0.036770 1.016647 0.012563
v 0.083725 1.020357 -0.012563
v 0.047770 1.049278 0.012563
v 0.036770 1.055606 0.012563
v 0.047770 1.049278 -0.012563
v 0.036770 1.055606 -0.012563
v 0.036770 1.089000 -0.012563
v 0.059391 1.124085 0.012563
v 0.036770 1.834238 -0.012563
v 0.073858 1.759681 -0.012563
v 0.083725 1.189492 0.012563
v 0.073858 1.759681 0.012563
v 0.036770 1.834238 0.012563
v 0.059391 1.124085 -0.012563
v 0.036770 1.115283 0.012563
v 0.036770 1.115283 -0.012563
v 0.109872 1.162225 0.012563
v 0.109872 1.162225 -0.012563
v 0.036770 1.152388 0.012563
v 0.036770 1.152388 -0.012563
v 0.083725 1.189492 -0.012563
v 0.036770 1.189492 0.012563
v 0.036770 1.189492 -0.012563
v 0.036770 1.266513 0.012563
v 0.036770 1.420308 0.012563
v 0.036770 1.466362 0.012563
v 0.036770 1.512417 0.012563
v 0.036770 1.558472 0.012563
v 0.036770 1.604526 0.012563
v 0.083725 1.266513 -0.012563
v 0.072903 1.420308 -0.012563
v 0.083725 1.466362 -0.012563
v 0.051259 1.512417 -0.012563
v 0.083725 1.558472 -0.012563
v 0.083725 1.604526 -0.012563
v 0.083725 1.266513 0.012563
v 0.072903 1.420308 0.012563
v 0.083725 1.466362 0.012563
v 0.051259 1.512417 0.012563
v 0.083725 1.558472 0.012563
v 0.083725 1.604526 0.012563
v 0.036770 1.604526 -0.012563
v 0.036770 1.558472 -0.012563
v 0.036770 1.512417 -0.012563
v 0.036770 1.466362 -0.012563
v 0.036770 1.420308 -0.012563
v 0.036770 1.266513 -0.012563
v 0.000000 0.363954 0.012563
v -0.036770 0.338172 -0.012563
v 0.000000 0.363954 -0.012563
v -0.072542 1.089000 -0.012563
v -0.036770 0.338172 0.012563
v -0.083725 0.338172 -0.012563
v -0.083725 0.338172 0.012563
v -0.036770 1.089000 0.012563
v 0.000000 1.089000 -0.012563
v -0.072542 1.089000 0.012563
v -0.097640 1.016647 0.012563
v -0.036770 1.016647 -0.012563
v 0.000000 1.016647 -0.012563
v 0.000000 1.016647 0.012563
v -0.036770 1.016647 0.012563
v -0.097640 1.016647 -0.012563
v -0.083725 1.055606 0.012563
v 0.000000 1.055606 -0.012563
v -0.036770 1.055606 0.012563
v -0.083725 1.055606 -0.012563
v -0.036770 1.055606 -0.012563
v 0.000000 1.055606 0.012563
v -0.036770 1.089000 -0.012563
v 0.000000 1.089000 0.012563
v 0.000000 1.872138 0.012563
v 0.000000 1.872138 -0.012563
v -0.083725 1.115283 0.012563
v -0.036770 1.834238 -0.012563
v -0.073858 1.759681 -0.012563
v -0.083725 1.189492 0.012563
v -0.073858 1.759681 0.012563
v -0.036770 1.834238 0.012563
v -0.083725 1.115283 -0.012563
v -0.036770 1.115283 0.012563
v 0.000000 1.115283 -0.012563
v -0.036770 1.115283 -0.012563
v 0.000000 1.115283 0.012563
v -0.083725 1.152388 0.012563
v -0.083725 1.152388 -0.012563
v -0.036770 1.152388 0.012563
v 0.000000 1.152388 -0.012563
v -0.036770 1.152388 -0.012563
v 0.000000 1.152388 0.012563
v -0.083725 1.189492 -0.012563
v -0.036770 1.189492 0.012563
v 0.000000 1.189492 -0.012563
v -0.036770 1.189492 -0.012563
v 0.000000 1.189492 0.012563
v 0.000000 1.266513 -0.012563
v 0.000000 1.420308 -0.012563
v 0.000000 1.466362 -0.012563
v 0.000000 1.512417 -0.012563
v 0.000000 1.558472 -0.012563
v 0.000000 1.604526 -0.012563
v -0.036770 1.266513 0.012563
v -0.036770 1.420308 0.012563
v -0.036770 1.466362 0.012563
v -0.036770 1.512417 0.012563
v -0.036770 1.558472 0.012563
v -0.036770 1.604526 0.012563
v -0.088879 1.266513 -0.012563
v -0.083725 1.420308 -0.012563
v -0.065572 1.466362 -0.012563
v -0.097705 1.512417 -0.012563
v -0.075336 1.558472 -0.012563
v -0.083725 1.604526 -0.012563
v -0.088879 1.266513 0.012563
v -0.083725 1.420308 0.012563
v -0.065572 1.466362 0.012563
v -0.097705 1.512417 0.012563
v -0.075336 1.558472 0.012563
v -0.083725 1.604526 0.012563
v -0.036770 1.604526 -0.012563
v -0.036770 1.558472 -0.012563
v -0.036770 1.512417 -0.012563
v -0.036770 1.466362 -0.012563
v -0.036770 1.420308 -0.012563
v -0.036770 1.266513 -0.012563
v 0.000000 1.604526 0.012563
v 0.000000 1.558472 0.012563
v 0.000000 1.512417 0.012563
v 0.000000 1.466362 0.012563
v 0.000000 1.420308 0.012563
v 0.000000 1.266513 0.012563
v 0.036770 0.808091 -0.012563
v 0.000000 0.808091 0.012563
v 0.072594 0.808091 0.012563
v 0.000000 0.808091 -0.012563
v 0.036770 0.808091 0.012563
v 0.072594 0.808091 -0.012563
v -0.036770 0.808091 -0.012563
v -0.090683 0.808091 0.012563
v -0.036770 0.808091 0.012563
v -0.090683 0.808091 -0.012563
v 0.097389 1.086441 -0.012563
v 0.108432 0.338172 -0.000000
v 0.083725 0.338172 -0.012563
v 0.083725 0.338172 0.012563
v 0.097389 1.086441 0.012563
v 0.083725 1.020357 0.012563
v 0.108432 1.020357 -0.000000
v 0.083725 1.020357 -0.012563
v 0.047770 1.049278 0.012563
v 0.047770 1.049278 -0.012563
v 0.067299 1.046689 -0.000000
v 0.116702 1.083104 -0.000000
v 0.083724 1.792959 -0.000000
v 0.108432 1.739178 -0.000000
v 0.059391 1.124085 0.012563
v 0.036770 1.834238 -0.012563
v 0.073858 1.759681 -0.012563
v 0.083725 1.189492 0.012563
v 0.073858 1.759681 0.012563
v 0.036770 1.834238 0.012563
v 0.059391 1.124085 -0.012563
v 0.082026 1.126674 -0.000000
v 0.109872 1.162225 0.012563
v 0.109872 1.162225 -0.012563
v 0.127071 1.162743 -0.000000
v 0.040276 1.869380 -0.000000
v 0.083725 1.189492 -0.012563
v 0.108432 1.189492 -0.000000
v 0.083725 1.266513 -0.012563
v 0.072903 1.420308 -0.012563
v 0.083725 1.466362 -0.012563
v 0.051259 1.512417 -0.012563
v 0.083725 1.558472 -0.012563
v 0.083725 1.604526 -0.012563
v 0.083725 1.266513 0.012563
v 0.072903 1.420308 0.012563
v 0.083725 1.466362 0.012563
v 0.051259 1.512417 0.012563
v 0.083725 1.558472 0.012563
v 0.083725 1.604526 0.012563
v 0.108432 1.604526 -0.000000
v 0.108432 1.558472 -0.000000
v 0.075965 1.512417 -0.000000
v 0.108432 1.466362 -0.000000
v 0.097610 1.420308 -0.000000
v 0.108432 1.266513 -0.000000
v -0.072542 1.089000 -0.012563
v -0.108432 0.338172 -0.000000
v -0.083725 0.338172 -0.012563
v -0.083725 0.338172 0.012563
v -0.072542 1.089000 0.012563
v -0.097640 1.016647 0.012563
v -0.122346 1.016647 -0.000000
v -0.097640 1.016647 -0.012563
v -0.083725 1.055606 0.012563
v -0.083725 1.055606 -0.012563
v -0.108432 1.055606 -0.000000
v -0.097248 1.089000 -0.000000
v 0.000000 1.919085 0.000210
v 0.000000 1.872138 0.012563
v 0.000000 1.872138 -0.012563
v -0.083724 1.792959 -0.000000
v -0.108432 1.739178 -0.000000
v -0.083725 1.115283 0.012563
v -0.036770 1.834238 -0.012563
v -0.073858 1.759681 -0.012563
v -0.083725 1.189492 0.012563
v -0.073858 1.759681 0.012563
v -0.036770 1.834238 0.012563
v -0.083725 1.115283 -0.012563
v -0.108432 1.115283 -0.000000
v -0.083725 1.152388 0.012563
v -0.083725 1.152388 -0.012563
v -0.108432 1.152388 -0.000000
v -0.040276 1.869380 -0.000000
v -0.083725 1.189492 -0.012563
v -0.108432 1.189492 -0.000000
v -0.088879 1.266513 -0.012563
v -0.083725 1.420308 -0.012563
v -0.065572 1.466362 -0.012563
v -0.097705 1.512417 -0.012563
v -0.075336 1.558472 -0.012563
v -0.083725 1.604526 -0.012563
v -0.088879 1.266513 0.012563
v -0.083725 1.420308 0.012563
v -0.065572 1.466362 0.012563
v -0.097705 1.512417 0.012563
v -0.075336 1.558472 0.012563
v -0.083725 1.604526 0.012563
v -0.108432 1.604526 -0.000000
v -0.090933 1.558472 -0.000000
v -0.122411 1.512417 -0.000000
v -0.078951 1.466362 -0.000000
v -0.108432 1.420308 -0.000000
v -0.113585 1.266513 -0.000000
v 0.097300 0.808091 -0.000000
v 0.072594 0.808091 0.012563
v 0.072594 0.808091 -0.012563
v -0.115389 0.808091 -0.000000
v -0.090683 0.808091 0.012563
v -0.090683 0.808091 -0.012563
vn -0.0000 -0.0000 1.0000
vn -0.0000 -0.0000 -1.0000
vn 0.3957 0.5847 0.7082
vn 0.4597 0.5994 0.6553
vn 0.4861 0.6044 0.6312
vn 0.3957 0.5847 -0.7082
vn 0.4597 0.5994 -0.6553
vn 0.3699 0.5779 -0.7275
vn 0.4531 -0.0238 0.8911
vn 0.4531 -0.0238 -0.8911
vn 0.4022 -0.5385 -0.7405
vn 0.3957 -0.5353 -0.7462
vn 0.3940 -0.5345 -0.7477
vn 0.4022 -0.5385 0.7405
vn 0.3957 -0.5353 0.7462
vn 0.4039 -0.5393 0.7390
vn 0.5147 0.4284 -0.7427
vn 0.4349 0.4155 -0.7989
vn 0.5430 0.4322 -0.7200
vn 0.5147 0.4284 0.7427
vn 0.4349 0.4155 0.7989
vn 0.4063 0.4101 0.8165
vn 0.4376 0.0036 -0.8992
vn 0.3631 0.0203 -0.9315
vn 0.4533 -0.0000 -0.8914
vn 0.3631 0.0203 0.9315
vn 0.4376 0.0036 0.8992
vn 0.4533 -0.0000 0.8914
vn 0.3036 0.2648 -0.9153
vn 0.3033 0.2776 -0.9116
vn 0.3029 0.2939 -0.9066
vn 0.4491 -0.5892 -0.6717
vn 0.4762 -0.6001 -0.6427
vn 0.4825 -0.6026 -0.6357
vn 0.4491 -0.5892 0.6717
vn 0.4762 -0.6001 0.6427
vn 0.4433 -0.5867 0.6777
vn 0.4937 0.3853 -0.7796
vn 0.4570 0.3920 -0.7984
vn 0.5392 0.3757 -0.7537
vn 0.4937 0.3853 0.7796
vn 0.4570 0.3920 0.7984
vn 0.4157 0.3986 0.8175
vn 0.4496 0.2504 -0.8574
vn 0.4261 0.2174 -0.8781
vn 0.4200 0.2089 -0.8832
vn 0.4496 0.2504 0.8574
vn 0.4261 0.2174 0.8781
vn 0.4556 0.2590 0.8517
vn 0.3034 0.2747 0.9124
vn 0.3037 0.2597 0.9167
vn 0.3029 0.2939 0.9066
vn 0.4377 0.2011 -0.8764
vn 0.4377 0.2011 0.8764
vn 0.4530 0.0319 0.8909
vn 0.4507 -0.1059 0.8864
vn 0.4318 0.3044 0.8491
vn 0.4317 0.3044 0.8491
vn 0.4318 -0.3044 0.8491
vn 0.4317 -0.3044 0.8491
vn 0.4530 0.0319 -0.8909
vn 0.4507 -0.1059 -0.8864
vn 0.4317 0.3044 -0.8491
vn 0.4318 0.3044 -0.8491
vn 0.4318 -0.3044 -0.8491
vn -0.4474 0.1598 0.8799
vn -0.4481 0.1509 0.8812
vn -0.4481 0.1509 -0.8812
vn -0.4474 0.1598 -0.8799
vn -0.4532 -0.0110 0.8913
vn -0.4532 -0.0151 0.8913
vn -0.4532 -0.0110 -0.8913
vn -0.4532 -0.0151 -0.8913
vn -0.4532 -0.0109 -0.8913
vn -0.4481 0.1501 -0.8813
vn -0.4475 0.1589 -0.8801
vn -0.4475 0.1589 0.8801
vn -0.4481 0.1501 0.8813
vn -0.4451 -0.1894 -0.8753
vn -0.4451 -0.1894 0.8753
vn -0.4376 0.0036 -0.8992
vn -0.3631 0.0203 -0.9315
vn -0.3532 0.0225 -0.9353
vn -0.4376 0.0036 0.8992
vn -0.3631 0.0203 0.9315
vn -0.4533 -0.0000 0.8914
vn -0.3033 0.2776 -0.9116
vn -0.3036 0.2648 -0.9153
vn -0.3029 0.2939 -0.9066
vn -0.4533 -0.0000 -0.8914
vn -0.4496 0.2504 -0.8574
vn -0.4261 0.2174 -0.8781
vn -0.4556 0.2590 -0.8517
vn -0.4261 0.2174 0.8781
vn -0.4496 0.2504 0.8574
vn -0.4556 0.2590 0.8517
vn -0.3034 0.2747 0.9124
vn -0.3037 0.2597 0.9167
vn -0.3040 0.2424 0.9213
vn -0.4377 0.2011 -0.8764
vn -0.4377 0.2011 0.8764
vn -0.4530 -0.0303 0.8910
vn -0.4532 0.0152 0.8913
vn -0.4825 0.2767 0.8310
vn -0.6052 0.2673 0.7498
vn -0.4353 0.2786 0.8561
vn -0.5789 -0.4255 0.6956
vn -0.4502 -0.4010 0.7979
vn -0.4167 -0.3933 0.8196
vn -0.4683 0.2960 0.8325
vn -0.5595 0.2937 0.7751
vn -0.4330 0.2959 0.8515
vn -0.5714 -0.1315 0.8100
vn -0.4917 -0.1567 0.8566
vn -0.4467 -0.1697 0.8784
vn -0.4530 -0.0303 -0.8910
vn -0.4532 0.0152 -0.8913
vn -0.4825 0.2767 -0.8310
vn -0.6052 0.2673 -0.7498
vn -0.6609 0.2605 -0.7038
vn -0.5789 -0.4255 -0.6956
vn -0.4502 -0.4010 -0.7979
vn -0.6177 -0.4310 -0.6578
vn -0.4683 0.2960 -0.8325
vn -0.5595 0.2937 -0.7751
vn -0.6000 0.2914 -0.7450
vn -0.5714 -0.1315 -0.8100
vn -0.4917 -0.1567 -0.8566
vn -0.6232 -0.1135 -0.7738
vn -0.4532 -0.0067 -0.8914
vn -0.4532 -0.0067 0.8914
vn -0.4532 -0.0109 0.8913
vn 0.4532 0.0107 -0.8913
vn 0.4532 0.0107 0.8913
vn 0.3699 0.5779 0.7275
vn 0.4861 0.6044 -0.6312
vn 0.4039 -0.5393 -0.7390
vn 0.3940 -0.5345 0.7477
vn 0.4063 0.4101 -0.8165
vn 0.5430 0.4322 0.7200
vn 0.3532 0.0225 -0.9353
vn 0.3532 0.0225 0.9353
vn 0.3039 0.2501 -0.9193
vn 0.4433 -0.5867 -0.6777
vn 0.4825 -0.6026 0.6357
vn 0.4157 0.3986 -0.8175
vn 0.5392 0.3757 0.7537
vn 0.4556 0.2590 -0.8517
vn 0.4200 0.2089 0.8832
vn 0.3040 0.2424 0.9213
vn -0.3532 0.0225 0.9353
vn -0.3039 0.2501 -0.9193
vn -0.4200 0.2089 -0.8832
vn -0.4200 0.2089 0.8832
vn -0.3029 0.2939 0.9066
vn -0.6609 0.2605 0.7038
vn -0.6177 -0.4310 0.6578
vn -0.6000 0.2914 0.7450
vn -0.6232 -0.1135 0.7738
vn -0.4353 0.2786 -0.8561
vn -0.4167 -0.3933 -0.8196
vn -0.4330 0.2959 -0.8515
vn -0.4467 -0.1697 -0.8784
s 1
f 10//1 12//1 13//1
f 9//2 14//2 11//2
f 10//1 78//1 70//1
f 69//2 15//2 9//2
f 69//2 141//2 144//2
f 10//1 142//1 145//1
f 143//1 10//1 145//1
f 146//2 9//2 11//2
f 12//1 6//1 13//1
f 14//2 16//2 2//2
f 13//1 80//1 78//1
f 74//2 16//2 15//2
f 65//2 25//2 16//2
f 6//1 17//1 24//1
f 16//2 23//2 2//2
f 6//1 93//1 80//1
f 51//2 19//2 44//2
f 21//1 38//1 50//1
f 24//1 99//1 93//1
f 91//2 29//2 25//2
f 17//1 28//1 24//1
f 23//2 29//2 27//2
f 97//2 32//2 29//2
f 28//1 20//1 31//1
f 29//2 30//2 27//2
f 28//1 104//1 99//1
f 22//1 135//1 38//1
f 105//2 32//2 102//2
f 106//2 56//2 105//2
f 107//2 55//2 106//2
f 108//2 54//2 107//2
f 109//2 53//2 108//2
f 110//2 52//2 109//2
f 33//1 104//1 31//1
f 34//1 140//1 33//1
f 35//1 139//1 34//1
f 36//1 138//1 35//1
f 37//1 137//1 36//1
f 38//1 136//1 37//1
f 45//1 31//1 20//1
f 46//1 33//1 45//1
f 46//1 35//1 34//1
f 48//1 35//1 47//1
f 48//1 37//1 36//1
f 50//1 37//1 49//1
f 32//2 39//2 30//2
f 56//2 40//2 39//2
f 40//2 54//2 41//2
f 54//2 42//2 41//2
f 42//2 52//2 43//2
f 52//2 44//2 43//2
f 110//2 18//2 51//2
f 71//1 73//1 67//1
f 76//2 68//2 72//2
f 78//1 71//1 70//1
f 77//2 69//2 68//2
f 147//2 69//2 144//2
f 142//1 71//1 149//1
f 148//1 71//1 67//1
f 150//2 68//2 147//2
f 75//1 66//1 73//1
f 60//2 77//2 76//2
f 80//1 75//1 78//1
f 79//2 74//2 77//2
f 92//2 65//2 79//2
f 90//1 66//1 64//1
f 60//2 92//2 79//2
f 93//1 64//1 80//1
f 85//2 129//2 122//2
f 116//1 87//1 128//1
f 99//1 90//1 93//1
f 98//2 91//2 92//2
f 96//1 83//1 90//1
f 95//2 92//2 89//2
f 103//2 97//2 98//2
f 101//1 94//1 96//1
f 100//2 98//2 95//2
f 104//1 96//1 99//1
f 135//1 88//1 116//1
f 103//2 105//2 102//2
f 134//2 106//2 105//2
f 133//2 107//2 106//2
f 132//2 108//2 107//2
f 131//2 109//2 108//2
f 130//2 110//2 109//2
f 104//1 111//1 101//1
f 140//1 112//1 111//1
f 139//1 113//1 112//1
f 138//1 114//1 113//1
f 137//1 115//1 114//1
f 136//1 116//1 115//1
f 86//1 111//1 123//1
f 111//1 124//1 123//1
f 112//1 125//1 124//1
f 125//1 114//1 126//1
f 114//1 127//1 126//1
f 127//1 116//1 128//1
f 100//2 134//2 103//2
f 118//2 134//2 117//2
f 119//2 133//2 118//2
f 119//2 131//2 132//2
f 121//2 131//2 120//2
f 121//2 129//2 130//2
f 110//2 84//2 82//2
f 62//2 147//2 58//2
f 63//1 149//1 148//1
f 57//1 149//1 61//1
f 59//2 147//2 144//2
f 1//2 146//2 4//2
f 143//1 3//1 5//1
f 145//1 57//1 3//1
f 59//2 141//2 1//2
f 156//3 161//4 159//5
f 158//6 161//7 157//8
f 246//9 156//9 247//9
f 158//10 246//10 248//10
f 161//11 151//12 162//13
f 161//14 155//15 159//16
f 151//17 172//18 162//19
f 155//20 172//21 165//22
f 184//23 164//24 191//25
f 164//26 190//27 191//28
f 211//29 176//30 166//31
f 172//32 174//33 175//34
f 172//35 173//36 165//37
f 174//38 178//39 175//40
f 173//41 178//42 168//43
f 166//44 163//45 167//46
f 170//47 163//48 176//49
f 176//50 210//51 170//52
f 167//53 163//53 164//53
f 163//54 169//54 164//54
f 196//28 168//28 178//28
f 195//55 185//55 196//55
f 195//56 187//56 186//56
f 193//57 187//58 194//58
f 193//59 189//60 188//59
f 191//28 189//28 192//28
f 179//25 178//25 177//25
f 179//61 195//61 196//61
f 181//62 195//62 180//62
f 181//63 193//64 194//63
f 183//65 193//65 182//65
f 184//25 192//25 183//25
f 202//66 207//67 203//66
f 207//68 204//69 203//69
f 249//70 202//71 203//71
f 249//72 204//73 251//74
f 208//75 206//76 207//68
f 205//77 208//78 207//67
f 208//79 220//79 197//79
f 214//80 208//80 201//80
f 233//81 213//82 216//83
f 239//84 213//85 240//86
f 225//87 211//88 215//89
f 224//90 220//90 221//90
f 222//86 221//86 214//86
f 227//90 223//90 224//90
f 217//86 224//86 222//86
f 215//91 212//92 225//93
f 212//94 219//95 225//96
f 225//97 210//98 209//99
f 216//100 213//100 212//100
f 212//101 213//101 218//101
f 227//102 234//102 245//102
f 234//103 244//103 245//103
f 235//104 243//105 244//106
f 243//107 237//108 242//109
f 237//110 241//111 242//112
f 241//113 239//114 240//115
f 227//116 228//116 226//116
f 228//117 244//117 229//117
f 229//118 243//119 230//120
f 243//121 231//122 230//123
f 231//124 241//125 232//126
f 241//127 233//128 232//129
f 198//130 251//74 199//130
f 198//131 250//132 249//70
f 153//133 246//133 152//133
f 246//134 154//134 152//134
f 10//1 8//1 12//1
f 9//2 15//2 14//2
f 10//1 13//1 78//1
f 69//2 74//2 15//2
f 69//2 9//2 141//2
f 10//1 70//1 142//1
f 143//1 8//1 10//1
f 146//2 141//2 9//2
f 12//1 7//1 6//1
f 14//2 15//2 16//2
f 13//1 6//1 80//1
f 74//2 65//2 16//2
f 65//2 91//2 25//2
f 6//1 7//1 17//1
f 16//2 25//2 23//2
f 6//1 24//1 93//1
f 51//2 18//2 19//2
f 21//1 22//1 38//1
f 24//1 28//1 99//1
f 91//2 97//2 29//2
f 17//1 26//1 28//1
f 23//2 25//2 29//2
f 97//2 102//2 32//2
f 28//1 26//1 20//1
f 29//2 32//2 30//2
f 28//1 31//1 104//1
f 22//1 81//1 135//1
f 105//2 56//2 32//2
f 106//2 55//2 56//2
f 107//2 54//2 55//2
f 108//2 53//2 54//2
f 109//2 52//2 53//2
f 110//2 51//2 52//2
f 33//1 140//1 104//1
f 34//1 139//1 140//1
f 35//1 138//1 139//1
f 36//1 137//1 138//1
f 37//1 136//1 137//1
f 38//1 135//1 136//1
f 45//1 33//1 31//1
f 46//1 34//1 33//1
f 46//1 47//1 35//1
f 48//1 36//1 35//1
f 48//1 49//1 37//1
f 50//1 38//1 37//1
f 32//2 56//2 39//2
f 56//2 55//2 40//2
f 40//2 55//2 54//2
f 54//2 53//2 42//2
f 42//2 53//2 52//2
f 52//2 51//2 44//2
f 110//2 82//2 18//2
f 71//1 75//1 73//1
f 76//2 77//2 68//2
f 78//1 75//1 71//1
f 77//2 74//2 69//2
f 147//2 68//2 69//2
f 142//1 70//1 71//1
f 148//1 149//1 71//1
f 150//2 72//2 68//2
f 75//1 64//1 66//1
f 60//2 79//2 77//2
f 80//1 64//1 75//1
f 79//2 65//2 74//2
f 92//2 91//2 65//2
f 90//1 83//1 66//1
f 60//2 89//2 92//2
f 93//1 90//1 64//1
f 85//2 84//2 129//2
f 116//1 88//1 87//1
f 99//1 96//1 90//1
f 98//2 97//2 91//2
f 96//1 94//1 83//1
f 95//2 98//2 92//2
f 103//2 102//2 97//2
f 101//1 86//1 94//1
f 100//2 103//2 98//2
f 104//1 101//1 96//1
f 135//1 81//1 88//1
f 103//2 134//2 105//2
f 134//2 133//2 106//2
f 133//2 132//2 107//2
f 132//2 131//2 108//2
f 131//2 130//2 109//2
f 130//2 129//2 110//2
f 104//1 140//1 111//1
f 140//1 139//1 112//1
f 139//1 138//1 113//1
f 138//1 137//1 114//1
f 137//1 136//1 115//1
f 136//1 135//1 116//1
f 86//1 101//1 111//1
f 111//1 112//1 124//1
f 112//1 113//1 125//1
f 125//1 113//1 114//1
f 114//1 115//1 127//1
f 127//1 115//1 116//1
f 100//2 117//2 134//2
f 118//2 133//2 134//2
f 119//2 132//2 133//2
f 119//2 120//2 131//2
f 121//2 130//2 131//2
f 121//2 122//2 129//2
f 110//2 129//2 84//2
f 62//2 150//2 147//2
f 63//1 61//1 149//1
f 57//1 142//1 149//1
f 59//2 58//2 147//2
f 1//2 141//2 146//2
f 143//1 145//1 3//1
f 145//1 142//1 57//1
f 59//2 144//2 141//2
f 156//3 157//135 161//4
f 158//6 160//136 161//7
f 246//9 157//9 156//9
f 158//10 157//10 246//10
f 161//11 160//137 151//12
f 161//14 162//138 155//15
f 151//17 171//139 172//18
f 155//20 162//140 172//21
f 184//23 167//141 164//24
f 164//26 169//142 190//27
f 211//29 209//143 176//30
f 172//32 171//144 174//33
f 172//35 175//145 173//36
f 174//38 177//146 178//39
f 173//41 175//147 178//42
f 166//44 176//148 163//45
f 170//47 169//149 163//48
f 176//50 209//150 210//51
f 196//28 185//28 168//28
f 195//55 186//55 185//55
f 195//56 194//56 187//56
f 193//57 188//57 187//58
f 193//59 192//60 189//60
f 191//28 190//28 189//28
f 179//25 196//25 178//25
f 179//61 180//61 195//61
f 181//62 194//62 195//62
f 181//63 182//64 193//64
f 183//65 192//65 193//65
f 184//25 191//25 192//25
f 202//66 205//77 207//67
f 207//68 206//76 204//69
f 249//70 250//132 202//71
f 249//72 203//73 204//73
f 208//75 197//75 206//76
f 205//77 201//78 208//78
f 208//79 221//79 220//79
f 214//80 221//80 208//80
f 233//81 240//90 213//82
f 239//84 218//151 213//85
f 225//87 209//152 211//88
f 224//90 223//90 220//90
f 222//86 224//86 221//86
f 227//90 226//90 223//90
f 217//86 227//86 224//86
f 215//91 216//153 212//92
f 212//94 218//154 219//95
f 225//97 219//155 210//98
f 227//102 217//102 234//102
f 234//103 235//103 244//103
f 235//104 236//156 243//105
f 243//107 236//157 237//108
f 237//110 238//158 241//111
f 241//113 238//159 239//114
f 227//116 245//116 228//116
f 228//117 245//117 244//117
f 229//118 244//160 243//119
f 243//121 242//161 231//122
f 231//124 242//162 241//125
f 241//127 240//163 233//128
f 198//130 249//72 251//74
f 198//131 200//131 250//132
f 153//133 248//133 246//133
f 246//134 247//134 154//134
