# Blender 3.6.0
# www.blender.org
o Sword.001
v 0.071024 -0.293088 -0.042396
v 0.027740 -0.254385 -0.027740
v 0.088585 -0.293088 0.000000
v 0.039231 -0.254385 0.000000
v 0.071024 -0.293088 0.042397
v 0.027740 -0.254385 0.027741
v 0.014542 -0.382979 -0.014542
v 0.020566 -0.382979 0.000000
v 0.014542 -0.382979 0.014542
v 0.248737 0.383783 0.030365
v 0.248737 0.383783 -0.030365
v 0.248737 0.383783 -0.000000
v 0.030365 0.236691 -0.030365
v 0.042943 0.236691 -0.000000
v 0.030365 0.236691 0.030365
v 0.248737 0.492793 -0.030365
v 0.248737 0.492793 -0.000000
v 0.248737 0.492793 0.030365
v 0.177925 0.431006 0.030365
v 0.177925 0.431006 -0.000000
v 0.267178 0.442963 -0.000000
v 0.267178 0.442963 0.030365
v 0.267178 0.442963 -0.030365
v 0.177925 0.431006 -0.030365
v 0.030365 0.338172 -0.030365
v 0.030365 0.338172 0.030365
v 0.251989 0.344261 0.030365
v 0.251989 0.344261 -0.030365
v 0.251989 0.344261 -0.000000
v 0.137195 0.276952 -0.000000
v 0.137195 0.276952 -0.030365
v 0.137195 0.276952 0.030365
v 0.164036 0.339067 -0.000000
v 0.164036 0.339067 -0.030365
v 0.164036 0.339067 0.030365
v 0.036770 0.338172 -0.012563
v 0.036770 0.338172 0.012563
v 0.108432 0.338172 -0.000000
v 0.083725 0.338172 -0.012563
v 0.083725 0.338172 0.012563
v 0.000000 -0.293088 -0.059958
v 0.000000 -0.254385 -0.039231
v -0.071024 -0.293088 -0.042396
v -0.027740 -0.254385 -0.027740
v -0.088585 -0.293088 0.000000
v -0.039231 -0.254385 0.000000
v -0.071024 -0.293088 0.042397
v -0.027740 -0.254385 0.027741
v 0.000000 -0.293088 0.059958
v 0.000000 -0.254385 0.039231
v 0.000000 -0.382979 -0.020566
v -0.014542 -0.382979 -0.014542
v -0.020566 -0.382979 0.000000
v -0.014542 -0.382979 0.014542
v 0.000000 -0.382979 0.020566
v -0.248737 0.383783 0.030365
v -0.248737 0.383783 -0.030365
v -0.248737 0.383783 -0.000000
v -0.030365 0.236691 -0.030365
v 0.000000 0.236691 -0.042943
v -0.042943 0.236691 -0.000000
v -0.030365 0.236691 0.030365
v 0.000000 0.236691 0.042943
v -0.248737 0.492793 -0.030365
v -0.248737 0.492793 -0.000000
v -0.248737 0.492793 0.030365
v -0.177925 0.431006 0.030365
v -0.177925 0.431006 -0.000000
v -0.267178 0.442963 -0.000000
v -0.267178 0.442963 0.030365
v -0.267178 0.442963 -0.030365
v -0.177925 0.431006 -0.030365
v -0.030365 0.338172 -0.030365
v 0.000000 0.363954 -0.042943
v -0.030365 0.338172 0.030365
v 0.000000 0.363954 0.042943
v -0.248737 0.345345 0.030365
v -0.248737 0.345345 -0.030365
v -0.248737 0.345345 -0.000000
v -0.137195 0.276952 -0.000000
v -0.137195 0.276952 -0.030365
v -0.137195 0.276952 0.030365
v -0.164036 0.339067 -0.000000
v -0.164036 0.339067 -0.030365
v -0.164036 0.339067 0.030365
v 0.000000 0.363954 0.012563
v -0.036770 0.338172 -0.012563
v 0.000000 0.363954 -0.012563
v -0.036770 0.338172 0.012563
v -0.108432 0.338172 -0.000000
v -0.083725 0.338172 -0.012563
v -0.083725 0.338172 0.012563
v -0.064900 -0.354921 0.043187
v 0.000000 -0.354921 -0.061075
v 0.064900 -0.354921 -0.043187
v 0.082788 -0.354921 0.000000
v 0.064900 -0.354921 0.043187
v 0.000000 -0.354921 0.061075
v -0.082788 -0.354921 0.000000
v -0.064900 -0.354921 -0.043187
v 0.000000 -0.382979 0.014541
v 0.000000 -0.382979 0.000003
v 0.000000 -0.382979 -0.014538
v -0.014542 -0.382979 -0.000002
v 0.014542 -0.382979 0.000002
vn 0.2552 0.5040 -0.8252
vn 0.2578 0.5023 -0.8254
vn 0.2025 0.5367 -0.8191
vn 0.5979 0.7624 -0.2476
vn 0.5979 0.7624 0.2476
vn 0.2578 0.5023 0.8254
vn 0.2552 0.5040 0.8252
vn 0.2025 0.5367 0.8191
vn 0.9966 0.0820 -0.0000
vn 0.1660 -0.8207 0.5467
vn 0.1864 -0.8145 0.5494
vn 0.1501 -0.8252 0.5445
vn 0.4052 -0.8987 -0.1679
vn 0.1660 -0.8207 -0.5467
vn 0.1864 -0.8145 -0.5494
vn 0.2295 -0.8001 -0.5542
vn 0.4052 -0.8987 0.1679
vn 0.9378 0.3471 -0.0000
vn -0.0000 -0.0000 -1.0000
vn -0.6575 0.7535 -0.0000
vn -0.0000 -0.0000 1.0000
vn -0.9204 -0.0863 0.3813
vn 0.9547 -0.2975 -0.0000
vn 0.5058 -0.8626 -0.0000
vn -0.9888 0.1494 -0.0000
vn -0.0018 1.0000 -0.0053
vn -0.0106 0.9999 -0.0128
vn -0.0000 1.0000 -0.0000
vn 0.3560 -0.9263 0.1232
vn 0.3854 -0.9224 0.0268
vn 0.3490 -0.9259 0.1445
vn 0.3827 -0.0000 -0.9239
vn -0.0000 -1.0000 -0.0000
vn 0.3827 -0.0000 0.9239
vn -0.0088 0.9999 0.0103
vn -0.0093 1.0000 -0.0000
vn -0.0161 0.9999 -0.0000
vn 0.5943 0.7929 -0.1346
vn 0.6272 0.7769 -0.0553
vn 0.5622 0.8019 -0.2023
vn 0.3560 -0.9263 -0.1232
vn 0.3854 -0.9224 -0.0268
vn 0.3928 -0.9196 -0.0000
vn -0.0088 0.9999 -0.0103
vn 0.5943 0.7929 0.1346
vn 0.6272 0.7769 0.0553
vn 0.6472 0.7623 -0.0000
vn -0.0018 1.0000 0.0053
vn -0.0106 0.9999 0.0128
vn -0.2552 0.5040 -0.8252
vn -0.2578 0.5023 -0.8254
vn -0.3430 0.4435 -0.8281
vn -0.5979 0.7624 -0.2476
vn -0.5979 0.7624 0.2476
vn -0.2552 0.5040 0.8252
vn -0.2578 0.5023 0.8254
vn -0.2025 0.5367 0.8191
vn -1.0000 -0.0000 -0.0000
vn -0.1864 -0.8145 0.5494
vn -0.1660 -0.8207 0.5467
vn -0.1501 -0.8252 0.5445
vn -0.4052 -0.8987 -0.1679
vn -0.1660 -0.8207 -0.5467
vn -0.1864 -0.8145 -0.5494
vn -0.1501 -0.8252 -0.5445
vn -0.4052 -0.8987 0.1679
vn -0.9378 0.3471 -0.0000
vn 0.6575 0.7535 -0.0000
vn -0.9547 -0.2975 -0.0000
vn 0.9888 0.1494 -0.0000
vn -0.5227 -0.8525 -0.0000
vn 0.0018 1.0000 -0.0053
vn 0.0106 0.9999 -0.0128
vn 0.0088 0.9999 -0.0103
vn -0.3854 -0.9224 0.0268
vn -0.3560 -0.9263 0.1232
vn -0.3490 -0.9259 0.1445
vn -0.3827 -0.0000 -0.9239
vn -0.3827 -0.0000 0.9239
vn 0.0093 1.0000 -0.0000
vn 0.0088 0.9999 0.0103
vn 0.0161 0.9999 -0.0000
vn -0.5943 0.7929 -0.1346
vn -0.6272 0.7769 -0.0553
vn -0.6472 0.7623 -0.0000
vn -0.3560 -0.9263 -0.1232
vn -0.3854 -0.9224 -0.0268
vn -0.3490 -0.9259 -0.1445
vn -0.6272 0.7769 0.0553
vn -0.5943 0.7929 0.1346
vn 0.0106 0.9999 0.0128
vn 0.0018 1.0000 0.0053
vn 0.2536 0.0038 -0.9673
vn 0.2515 0.0015 -0.9679
vn 0.2657 0.0174 -0.9639
vn 0.9204 -0.0863 0.3813
vn -0.2515 0.0015 0.9679
vn -0.2536 0.0038 0.9673
vn -0.2400 -0.0114 0.9707
vn -0.9204 -0.0863 -0.3813
vn -0.2536 0.0038 -0.9673
vn -0.2515 0.0015 -0.9679
vn -0.2400 -0.0114 -0.9707
vn 0.9204 -0.0863 -0.3813
vn 0.2536 0.0038 0.9673
vn 0.2515 0.0015 0.9679
vn 0.2400 -0.0114 0.9707
vn 0.3430 0.4435 -0.8281
vn 0.3430 0.4435 0.8281
vn 0.2295 -0.8001 0.5542
vn 0.1501 -0.8252 -0.5445
vn 0.3490 -0.9259 -0.1445
vn 0.5622 0.8019 0.2023
vn -0.2025 0.5367 -0.8191
vn -0.3430 0.4435 0.8281
vn -0.2295 -0.8001 0.5542
vn -0.2295 -0.8001 -0.5542
vn -0.3928 -0.9196 -0.0000
vn -0.5622 0.8019 -0.2023
vn -0.5622 0.8019 0.2023
vn 0.2400 -0.0114 -0.9707
vn -0.2657 0.0174 0.9639
vn -0.2657 0.0174 -0.9639
vn 0.2657 0.0174 0.9639
s 1
f 41//1 2//2 1//3
f 1//4 4//4 3//4
f 4//5 5//5 3//5
f 6//6 49//7 5//8
f 28//9 12//9 29//9
f 98//10 9//11 97//12
f 95//13 8//13 7//13
f 94//14 7//15 51//16
f 97//17 8//17 96//17
f 23//18 17//18 21//18
f 23//19 24//19 16//19
f 19//20 17//20 20//20
f 19//21 22//21 18//21
f 99//22 47//22 45//22
f 10//21 19//21 35//21
f 11//23 21//23 12//23
f 11//19 24//19 23//19
f 21//18 18//18 22//18
f 31//24 29//24 30//24
f 34//25 20//25 24//25
f 34//19 28//19 31//19
f 26//26 40//27 37//28
f 14//29 32//30 15//31
f 60//32 25//32 13//32
f 30//24 27//24 32//24
f 55//33 101//33 9//33
f 63//34 26//34 76//34
f 34//35 38//36 33//37
f 29//9 10//9 27//9
f 21//23 10//23 12//23
f 35//21 27//21 10//21
f 25//19 31//19 13//19
f 25//38 88//39 36//40
f 26//21 32//21 35//21
f 14//41 31//42 30//43
f 35//44 38//36 40//27
f 26//45 86//46 76//47
f 25//48 39//49 34//35
f 41//50 44//51 42//52
f 43//53 46//53 44//53
f 47//54 46//54 45//54
f 49//55 48//56 47//57
f 58//58 78//58 79//58
f 54//59 98//60 93//61
f 100//62 53//62 99//62
f 94//63 52//64 100//65
f 53//66 93//66 99//66
f 65//67 71//67 69//67
f 71//19 64//19 72//19
f 65//68 67//68 68//68
f 67//21 66//21 70//21
f 67//21 56//21 85//21
f 69//69 57//69 58//69
f 57//19 72//19 84//19
f 72//70 83//70 84//70
f 66//67 69//67 70//67
f 80//71 78//71 81//71
f 70//69 58//69 56//69
f 78//19 84//19 81//19
f 75//72 92//73 85//74
f 82//75 61//76 62//77
f 73//78 60//78 59//78
f 82//71 79//71 80//71
f 55//33 54//33 101//33
f 63//79 75//79 62//79
f 90//80 84//81 83//82
f 56//58 79//58 77//58
f 68//70 85//70 83//70
f 85//21 77//21 82//21
f 81//19 73//19 59//19
f 73//83 88//84 74//85
f 75//21 82//21 62//21
f 61//86 81//87 59//88
f 85//74 90//80 83//82
f 86//89 75//90 76//85
f 91//91 73//92 84//81
f 17//20 24//20 20//20
f 64//68 68//68 72//68
f 41//93 95//94 94//95
f 5//96 96//96 3//96
f 93//97 49//98 47//99
f 43//100 99//100 45//100
f 41//101 100//102 43//103
f 1//104 96//104 95//104
f 19//25 33//25 35//25
f 49//105 97//106 5//107
f 54//33 102//33 101//33
f 104//33 103//33 102//33
f 103//33 52//33 51//33
f 52//33 104//33 53//33
f 53//33 104//33 54//33
f 9//33 105//33 8//33
f 8//33 105//33 7//33
f 7//33 103//33 51//33
f 103//33 105//33 102//33
f 105//33 101//33 102//33
f 41//1 42//108 2//2
f 1//4 2//4 4//4
f 4//5 6//5 5//5
f 6//6 50//109 49//7
f 28//9 11//9 12//9
f 98//10 55//110 9//11
f 95//13 96//13 8//13
f 94//14 95//111 7//15
f 97//17 9//17 8//17
f 23//18 16//18 17//18
f 19//20 18//20 17//20
f 99//22 93//22 47//22
f 10//21 22//21 19//21
f 11//23 23//23 21//23
f 11//19 34//19 24//19
f 21//18 17//18 18//18
f 31//24 28//24 29//24
f 34//25 33//25 20//25
f 34//19 11//19 28//19
f 26//26 35//44 40//27
f 14//29 30//43 32//30
f 60//32 74//32 25//32
f 30//24 29//24 27//24
f 63//34 15//34 26//34
f 34//35 39//49 38//36
f 29//9 12//9 10//9
f 21//23 22//23 10//23
f 35//21 32//21 27//21
f 25//19 34//19 31//19
f 25//38 74//47 88//39
f 26//21 15//21 32//21
f 14//41 13//112 31//42
f 35//44 33//37 38//36
f 26//45 37//113 86//46
f 25//48 36//28 39//49
f 41//50 43//114 44//51
f 43//53 45//53 46//53
f 47//54 48//54 46//54
f 49//55 50//115 48//56
f 58//58 57//58 78//58
f 54//59 55//116 98//60
f 100//62 52//62 53//62
f 94//63 51//117 52//64
f 53//66 54//66 93//66
f 65//67 64//67 71//67
f 65//68 66//68 67//68
f 67//21 70//21 56//21
f 69//69 71//69 57//69
f 57//19 71//19 72//19
f 72//70 68//70 83//70
f 66//67 65//67 69//67
f 80//71 79//71 78//71
f 70//69 69//69 58//69
f 78//19 57//19 84//19
f 75//72 89//28 92//73
f 82//75 80//118 61//76
f 73//78 74//78 60//78
f 82//71 77//71 79//71
f 63//79 76//79 75//79
f 90//80 91//91 84//81
f 56//58 58//58 79//58
f 68//70 67//70 85//70
f 85//21 56//21 77//21
f 81//19 84//19 73//19
f 73//83 87//119 88//84
f 75//21 85//21 82//21
f 61//86 80//118 81//87
f 85//74 92//73 90//80
f 86//89 89//120 75//90
f 91//91 87//28 73//92
f 17//20 16//20 24//20
f 64//68 65//68 68//68
f 41//93 1//121 95//94
f 5//96 97//96 96//96
f 93//97 98//122 49//98
f 43//100 100//100 99//100
f 41//101 94//123 100//102
f 1//104 3//104 96//104
f 19//25 20//25 33//25
f 49//105 98//124 97//106
f 54//33 104//33 102//33
f 104//33 52//33 103//33
f 103//33 7//33 105//33
f 105//33 9//33 101//33
